<?xml version="1.0" encoding="UTF-8"?>
<!DOCTYPE svg PUBLIC "-//W3C//DTD SVG 1.1//EN" "http://www.w3.org/Graphics/SVG/1.1/DTD/svg11.dtd">
<svg width="154mm" height="94mm" viewBox="0 0 15400 9400" version="1.1" baseProfile="tiny" xmlns="http://www.w3.org/2000/svg" stroke-width="28.222" stroke-linejoin="round" xml:space="preserve">
 <path fill="rgb(255,255,255)" stroke="none" d="M 7702,9378 L 19,9378 19,0 15384,0 15384,9378 7702,9378 Z"/>
 <path fill="rgb(255,255,255)" stroke="none" d="M 8273,7527 L 1948,7527 1948,384 14598,384 14598,7527 8273,7527 Z"/>
 <path fill="none" stroke="rgb(135,135,135)" stroke-width="26" stroke-linejoin="round" d="M 1948,7526 L 1948,7376"/>
 <path fill="none" stroke="rgb(135,135,135)" stroke-width="26" stroke-linejoin="round" d="M 4056,7526 L 4056,7376"/>
 <path fill="none" stroke="rgb(135,135,135)" stroke-width="26" stroke-linejoin="round" d="M 6165,7526 L 6165,7376"/>
 <path fill="none" stroke="rgb(135,135,135)" stroke-width="26" stroke-linejoin="round" d="M 8272,7526 L 8272,7376"/>
 <path fill="none" stroke="rgb(135,135,135)" stroke-width="26" stroke-linejoin="round" d="M 10381,7526 L 10381,7376"/>
 <path fill="none" stroke="rgb(135,135,135)" stroke-width="26" stroke-linejoin="round" d="M 12489,7526 L 12489,7376"/>
 <path fill="none" stroke="rgb(135,135,135)" stroke-width="26" stroke-linejoin="round" d="M 14598,7526 L 14598,7376"/>
 <path fill="none" stroke="rgb(135,135,135)" stroke-width="26" stroke-linejoin="round" d="M 1948,7526 L 14598,7526"/>
 <path fill="none" stroke="rgb(135,135,135)" stroke-width="26" stroke-linejoin="round" d="M 1948,7526 L 2098,7526"/>
 <path fill="none" stroke="rgb(135,135,135)" stroke-width="26" stroke-linejoin="round" d="M 1948,6335 L 2098,6335"/>
 <path fill="none" stroke="rgb(135,135,135)" stroke-width="26" stroke-linejoin="round" d="M 1948,5144 L 2098,5144"/>
 <path fill="none" stroke="rgb(135,135,135)" stroke-width="26" stroke-linejoin="round" d="M 1948,3954 L 2098,3954"/>
 <path fill="none" stroke="rgb(135,135,135)" stroke-width="26" stroke-linejoin="round" d="M 1948,2764 L 2098,2764"/>
 <path fill="none" stroke="rgb(135,135,135)" stroke-width="26" stroke-linejoin="round" d="M 1948,1573 L 2098,1573"/>
 <path fill="none" stroke="rgb(135,135,135)" stroke-width="26" stroke-linejoin="round" d="M 1948,382 L 2098,382"/>
 <path fill="none" stroke="rgb(135,135,135)" stroke-width="26" stroke-linejoin="round" d="M 1948,7526 L 1948,382"/>
 <path fill="rgb(0,132,209)" stroke="none" d="M 2107,3550 L 2106,3543 2106,3536 2105,3529 2104,3522 2103,3515 2101,3509 2099,3502 2097,3495 2094,3489 2092,3483 2089,3476 2085,3470 2082,3464 2078,3459 2074,3453 2069,3448 2065,3442 2060,3437 2055,3433 2050,3428 2044,3424 2039,3420 2033,3416 2027,3412 2021,3409 2015,3406 2008,3403 2002,3400 1995,3398 1989,3396 1982,3395 1975,3393 1968,3392 1961,3391 1954,3391 1948,3391 1941,3391 1934,3391 1927,3392 1920,3393 1913,3395 1906,3396 1900,3398 1893,3400 1887,3403 1880,3406 1874,3409 1868,3412 1862,3416 1856,3420 1851,3424 1845,3428 1840,3433 1835,3437 1830,3442 1826,3448 1821,3453 1817,3459 1813,3464 1810,3470 1806,3476 1803,3483 1801,3489 1798,3495 1796,3502 1794,3509 1792,3515 1791,3522 1790,3529 1789,3536 1789,3543 1789,3550 1789,3557 1789,3564 1790,3571 1791,3577 1792,3584 1794,3591 1796,3598 1798,3604 1801,3611 1803,3617 1806,3623 1810,3629 1813,3635 1817,3641 1821,3647 1826,3652 1830,3657 1835,3662 1840,3667 1845,3672 1851,3676 1856,3680 1862,3684 1868,3688 1874,3691 1880,3694 1887,3697 1893,3699 1900,3702 1906,3703 1913,3705 1920,3706 1927,3708 1934,3708 1941,3709 1948,3709 1954,3709 1961,3708 1968,3708 1975,3706 1982,3705 1989,3703 1995,3702 2002,3699 2008,3697 2015,3694 2021,3691 2027,3688 2033,3684 2039,3680 2044,3676 2050,3672 2055,3667 2060,3662 2065,3657 2069,3652 2074,3647 2078,3641 2082,3635 2085,3629 2089,3623 2092,3617 2094,3611 2097,3604 2099,3598 2101,3591 2103,3584 2104,3577 2105,3571 2106,3564 2106,3557 2107,3550 Z"/>
 <path fill="none" stroke="rgb(0,132,209)" stroke-linejoin="round" d="M 2107,3550 L 2106,3543 2106,3536 2105,3529 2104,3522 2103,3515 2101,3509 2099,3502 2097,3495 2094,3489 2092,3483 2089,3476 2085,3470 2082,3464 2078,3459 2074,3453 2069,3448 2065,3442 2060,3437 2055,3433 2050,3428 2044,3424 2039,3420 2033,3416 2027,3412 2021,3409 2015,3406 2008,3403 2002,3400 1995,3398 1989,3396 1982,3395 1975,3393 1968,3392 1961,3391 1954,3391 1948,3391 1941,3391 1934,3391 1927,3392 1920,3393 1913,3395 1906,3396 1900,3398 1893,3400 1887,3403 1880,3406 1874,3409 1868,3412 1862,3416 1856,3420 1851,3424 1845,3428 1840,3433 1835,3437 1830,3442 1826,3448 1821,3453 1817,3459 1813,3464 1810,3470 1806,3476 1803,3483 1801,3489 1798,3495 1796,3502 1794,3509 1792,3515 1791,3522 1790,3529 1789,3536 1789,3543 1789,3550 1789,3557 1789,3564 1790,3571 1791,3577 1792,3584 1794,3591 1796,3598 1798,3604 1801,3611 1803,3617 1806,3623 1810,3629 1813,3635 1817,3641 1821,3647 1826,3652 1830,3657 1835,3662 1840,3667 1845,3672 1851,3676 1856,3680 1862,3684 1868,3688 1874,3691 1880,3694 1887,3697 1893,3699 1900,3702 1906,3703 1913,3705 1920,3706 1927,3708 1934,3708 1941,3709 1948,3709 1954,3709 1961,3708 1968,3708 1975,3706 1982,3705 1989,3703 1995,3702 2002,3699 2008,3697 2015,3694 2021,3691 2027,3688 2033,3684 2039,3680 2044,3676 2050,3672 2055,3667 2060,3662 2065,3657 2069,3652 2074,3647 2078,3641 2082,3635 2085,3629 2089,3623 2092,3617 2094,3611 2097,3604 2099,3598 2101,3591 2103,3584 2104,3577 2105,3571 2106,3564 2106,3557 2107,3550 Z"/>
 <path fill="rgb(0,132,209)" stroke="none" d="M 4215,3469 L 4215,3462 4214,3455 4214,3448 4213,3441 4211,3435 4210,3428 4208,3421 4205,3415 4203,3408 4200,3402 4197,3396 4194,3390 4190,3384 4186,3378 4182,3372 4178,3367 4173,3362 4168,3357 4163,3352 4158,3347 4153,3343 4147,3339 4141,3335 4136,3331 4129,3328 4123,3325 4117,3322 4110,3320 4104,3317 4097,3315 4090,3314 4084,3312 4077,3311 4070,3311 4063,3310 4056,3310 4049,3310 4042,3311 4035,3311 4028,3312 4022,3314 4015,3315 4008,3317 4002,3320 3995,3322 3989,3325 3983,3328 3977,3331 3971,3335 3965,3339 3959,3343 3954,3347 3949,3352 3944,3357 3939,3362 3934,3367 3930,3372 3926,3378 3922,3384 3918,3390 3915,3396 3912,3402 3909,3408 3907,3415 3904,3421 3902,3428 3901,3435 3899,3441 3898,3448 3898,3455 3897,3462 3897,3469 3897,3476 3898,3483 3898,3490 3899,3497 3901,3503 3902,3510 3904,3517 3907,3523 3909,3530 3912,3536 3915,3542 3918,3549 3922,3554 3926,3560 3930,3566 3934,3571 3939,3576 3944,3581 3949,3586 3954,3591 3959,3595 3965,3599 3971,3603 3977,3607 3983,3610 3989,3613 3995,3616 4002,3618 4008,3621 4015,3623 4022,3624 4028,3626 4035,3627 4042,3627 4049,3628 4056,3628 4063,3628 4070,3627 4077,3627 4084,3626 4090,3624 4097,3623 4104,3621 4110,3618 4117,3616 4123,3613 4129,3610 4136,3607 4141,3603 4147,3599 4153,3595 4158,3591 4163,3586 4168,3581 4173,3576 4178,3571 4182,3566 4186,3560 4190,3554 4194,3549 4197,3542 4200,3536 4203,3530 4205,3523 4208,3517 4210,3510 4211,3503 4213,3497 4214,3490 4214,3483 4215,3476 4215,3469 Z"/>
 <path fill="none" stroke="rgb(0,132,209)" stroke-linejoin="round" d="M 4215,3469 L 4215,3462 4214,3455 4214,3448 4213,3441 4211,3435 4210,3428 4208,3421 4205,3415 4203,3408 4200,3402 4197,3396 4194,3390 4190,3384 4186,3378 4182,3372 4178,3367 4173,3362 4168,3357 4163,3352 4158,3347 4153,3343 4147,3339 4141,3335 4136,3331 4129,3328 4123,3325 4117,3322 4110,3320 4104,3317 4097,3315 4090,3314 4084,3312 4077,3311 4070,3311 4063,3310 4056,3310 4049,3310 4042,3311 4035,3311 4028,3312 4022,3314 4015,3315 4008,3317 4002,3320 3995,3322 3989,3325 3983,3328 3977,3331 3971,3335 3965,3339 3959,3343 3954,3347 3949,3352 3944,3357 3939,3362 3934,3367 3930,3372 3926,3378 3922,3384 3918,3390 3915,3396 3912,3402 3909,3408 3907,3415 3904,3421 3902,3428 3901,3435 3899,3441 3898,3448 3898,3455 3897,3462 3897,3469 3897,3476 3898,3483 3898,3490 3899,3497 3901,3503 3902,3510 3904,3517 3907,3523 3909,3530 3912,3536 3915,3542 3918,3549 3922,3554 3926,3560 3930,3566 3934,3571 3939,3576 3944,3581 3949,3586 3954,3591 3959,3595 3965,3599 3971,3603 3977,3607 3983,3610 3989,3613 3995,3616 4002,3618 4008,3621 4015,3623 4022,3624 4028,3626 4035,3627 4042,3627 4049,3628 4056,3628 4063,3628 4070,3627 4077,3627 4084,3626 4090,3624 4097,3623 4104,3621 4110,3618 4117,3616 4123,3613 4129,3610 4136,3607 4141,3603 4147,3599 4153,3595 4158,3591 4163,3586 4168,3581 4173,3576 4178,3571 4182,3566 4186,3560 4190,3554 4194,3549 4197,3542 4200,3536 4203,3530 4205,3523 4208,3517 4210,3510 4211,3503 4213,3497 4214,3490 4214,3483 4215,3476 4215,3469 Z"/>
 <path fill="rgb(0,132,209)" stroke="none" d="M 6324,3382 L 6323,3375 6323,3368 6322,3361 6321,3354 6320,3347 6318,3341 6316,3334 6314,3328 6311,3321 6309,3315 6306,3308 6302,3302 6299,3296 6295,3291 6291,3285 6286,3280 6282,3274 6277,3269 6272,3265 6267,3260 6261,3256 6256,3252 6250,3248 6244,3244 6238,3241 6232,3238 6225,3235 6219,3232 6212,3230 6206,3228 6199,3227 6192,3225 6185,3224 6178,3224 6171,3223 6165,3223 6158,3223 6151,3224 6144,3224 6137,3225 6130,3227 6123,3228 6117,3230 6110,3232 6104,3235 6097,3238 6091,3241 6085,3244 6079,3248 6073,3252 6068,3256 6062,3260 6057,3265 6052,3269 6047,3274 6043,3280 6038,3285 6034,3291 6030,3296 6027,3302 6023,3308 6020,3315 6018,3321 6015,3328 6013,3334 6011,3341 6009,3347 6008,3354 6007,3361 6006,3368 6006,3375 6006,3382 6006,3389 6006,3396 6007,3403 6008,3410 6009,3416 6011,3423 6013,3430 6015,3436 6018,3443 6020,3449 6023,3455 6027,3461 6030,3467 6034,3473 6038,3479 6043,3484 6047,3489 6052,3494 6057,3499 6062,3504 6068,3508 6073,3512 6079,3516 6085,3520 6091,3523 6097,3526 6104,3529 6110,3531 6117,3534 6123,3535 6130,3537 6137,3538 6144,3540 6151,3540 6158,3541 6165,3541 6171,3541 6178,3540 6185,3540 6192,3538 6199,3537 6206,3535 6212,3534 6219,3531 6225,3529 6232,3526 6238,3523 6244,3520 6250,3516 6256,3512 6261,3508 6267,3504 6272,3499 6277,3494 6282,3489 6286,3484 6291,3479 6295,3473 6299,3467 6302,3461 6306,3455 6309,3449 6311,3443 6314,3436 6316,3430 6318,3423 6320,3416 6321,3410 6322,3403 6323,3396 6323,3389 6324,3382 Z"/>
 <path fill="none" stroke="rgb(0,132,209)" stroke-linejoin="round" d="M 6324,3382 L 6323,3375 6323,3368 6322,3361 6321,3354 6320,3347 6318,3341 6316,3334 6314,3328 6311,3321 6309,3315 6306,3308 6302,3302 6299,3296 6295,3291 6291,3285 6286,3280 6282,3274 6277,3269 6272,3265 6267,3260 6261,3256 6256,3252 6250,3248 6244,3244 6238,3241 6232,3238 6225,3235 6219,3232 6212,3230 6206,3228 6199,3227 6192,3225 6185,3224 6178,3224 6171,3223 6165,3223 6158,3223 6151,3224 6144,3224 6137,3225 6130,3227 6123,3228 6117,3230 6110,3232 6104,3235 6097,3238 6091,3241 6085,3244 6079,3248 6073,3252 6068,3256 6062,3260 6057,3265 6052,3269 6047,3274 6043,3280 6038,3285 6034,3291 6030,3296 6027,3302 6023,3308 6020,3315 6018,3321 6015,3328 6013,3334 6011,3341 6009,3347 6008,3354 6007,3361 6006,3368 6006,3375 6006,3382 6006,3389 6006,3396 6007,3403 6008,3410 6009,3416 6011,3423 6013,3430 6015,3436 6018,3443 6020,3449 6023,3455 6027,3461 6030,3467 6034,3473 6038,3479 6043,3484 6047,3489 6052,3494 6057,3499 6062,3504 6068,3508 6073,3512 6079,3516 6085,3520 6091,3523 6097,3526 6104,3529 6110,3531 6117,3534 6123,3535 6130,3537 6137,3538 6144,3540 6151,3540 6158,3541 6165,3541 6171,3541 6178,3540 6185,3540 6192,3538 6199,3537 6206,3535 6212,3534 6219,3531 6225,3529 6232,3526 6238,3523 6244,3520 6250,3516 6256,3512 6261,3508 6267,3504 6272,3499 6277,3494 6282,3489 6286,3484 6291,3479 6295,3473 6299,3467 6302,3461 6306,3455 6309,3449 6311,3443 6314,3436 6316,3430 6318,3423 6320,3416 6321,3410 6322,3403 6323,3396 6323,3389 6324,3382 Z"/>
 <path fill="rgb(0,132,209)" stroke="none" d="M 8431,3298 L 8431,3291 8430,3284 8430,3277 8429,3270 8427,3263 8426,3257 8424,3250 8421,3243 8419,3237 8416,3231 8413,3224 8410,3218 8406,3212 8402,3207 8398,3201 8394,3196 8389,3190 8384,3185 8379,3181 8374,3176 8369,3172 8363,3168 8357,3164 8352,3160 8345,3157 8339,3154 8333,3151 8326,3148 8320,3146 8313,3144 8306,3143 8300,3141 8293,3140 8286,3139 8279,3139 8272,3139 8265,3139 8258,3139 8251,3140 8244,3141 8238,3143 8231,3144 8224,3146 8218,3148 8211,3151 8205,3154 8199,3157 8193,3160 8187,3164 8181,3168 8175,3172 8170,3176 8165,3181 8160,3185 8155,3190 8150,3196 8146,3201 8142,3207 8138,3212 8134,3218 8131,3224 8128,3231 8125,3237 8123,3243 8120,3250 8118,3257 8117,3263 8115,3270 8114,3277 8114,3284 8113,3291 8113,3298 8113,3305 8114,3312 8114,3319 8115,3325 8117,3332 8118,3339 8120,3346 8123,3352 8125,3359 8128,3365 8131,3371 8134,3377 8138,3383 8142,3389 8146,3395 8150,3400 8155,3405 8160,3410 8165,3415 8170,3420 8175,3424 8181,3428 8187,3432 8193,3436 8199,3439 8205,3442 8211,3445 8218,3447 8224,3449 8231,3451 8238,3453 8244,3454 8251,3455 8258,3456 8265,3457 8272,3457 8279,3457 8286,3456 8293,3455 8300,3454 8306,3453 8313,3451 8320,3449 8326,3447 8333,3445 8339,3442 8345,3439 8352,3436 8357,3432 8363,3428 8369,3424 8374,3420 8379,3415 8384,3410 8389,3405 8394,3400 8398,3395 8402,3389 8406,3383 8410,3377 8413,3371 8416,3365 8419,3359 8421,3352 8424,3346 8426,3339 8427,3332 8429,3325 8430,3319 8430,3312 8431,3305 8431,3298 Z"/>
 <path fill="none" stroke="rgb(0,132,209)" stroke-linejoin="round" d="M 8431,3298 L 8431,3291 8430,3284 8430,3277 8429,3270 8427,3263 8426,3257 8424,3250 8421,3243 8419,3237 8416,3231 8413,3224 8410,3218 8406,3212 8402,3207 8398,3201 8394,3196 8389,3190 8384,3185 8379,3181 8374,3176 8369,3172 8363,3168 8357,3164 8352,3160 8345,3157 8339,3154 8333,3151 8326,3148 8320,3146 8313,3144 8306,3143 8300,3141 8293,3140 8286,3139 8279,3139 8272,3139 8265,3139 8258,3139 8251,3140 8244,3141 8238,3143 8231,3144 8224,3146 8218,3148 8211,3151 8205,3154 8199,3157 8193,3160 8187,3164 8181,3168 8175,3172 8170,3176 8165,3181 8160,3185 8155,3190 8150,3196 8146,3201 8142,3207 8138,3212 8134,3218 8131,3224 8128,3231 8125,3237 8123,3243 8120,3250 8118,3257 8117,3263 8115,3270 8114,3277 8114,3284 8113,3291 8113,3298 8113,3305 8114,3312 8114,3319 8115,3325 8117,3332 8118,3339 8120,3346 8123,3352 8125,3359 8128,3365 8131,3371 8134,3377 8138,3383 8142,3389 8146,3395 8150,3400 8155,3405 8160,3410 8165,3415 8170,3420 8175,3424 8181,3428 8187,3432 8193,3436 8199,3439 8205,3442 8211,3445 8218,3447 8224,3449 8231,3451 8238,3453 8244,3454 8251,3455 8258,3456 8265,3457 8272,3457 8279,3457 8286,3456 8293,3455 8300,3454 8306,3453 8313,3451 8320,3449 8326,3447 8333,3445 8339,3442 8345,3439 8352,3436 8357,3432 8363,3428 8369,3424 8374,3420 8379,3415 8384,3410 8389,3405 8394,3400 8398,3395 8402,3389 8406,3383 8410,3377 8413,3371 8416,3365 8419,3359 8421,3352 8424,3346 8426,3339 8427,3332 8429,3325 8430,3319 8430,3312 8431,3305 8431,3298 Z"/>
 <path fill="rgb(0,132,209)" stroke="none" d="M 10540,3196 L 10539,3189 10539,3183 10538,3176 10537,3169 10536,3162 10534,3155 10532,3149 10530,3142 10527,3136 10525,3129 10522,3123 10518,3117 10515,3111 10511,3105 10507,3100 10502,3094 10498,3089 10493,3084 10488,3079 10483,3075 10477,3070 10472,3066 10466,3062 10460,3059 10454,3055 10448,3052 10441,3050 10435,3047 10428,3045 10422,3043 10415,3041 10408,3040 10401,3039 10394,3038 10387,3038 10381,3037 10374,3038 10367,3038 10360,3039 10353,3040 10346,3041 10339,3043 10333,3045 10326,3047 10320,3050 10313,3052 10307,3055 10301,3059 10295,3062 10289,3066 10284,3070 10278,3075 10273,3079 10268,3084 10263,3089 10259,3094 10254,3100 10250,3105 10246,3111 10243,3117 10239,3123 10236,3129 10234,3136 10231,3142 10229,3149 10227,3155 10225,3162 10224,3169 10223,3176 10222,3183 10222,3189 10222,3196 10222,3203 10222,3210 10223,3217 10224,3224 10225,3231 10227,3238 10229,3244 10231,3251 10234,3257 10236,3264 10239,3270 10243,3276 10246,3282 10250,3288 10254,3293 10259,3299 10263,3304 10268,3309 10273,3314 10278,3318 10284,3323 10289,3327 10295,3331 10301,3334 10307,3337 10313,3341 10320,3343 10326,3346 10333,3348 10339,3350 10346,3352 10353,3353 10360,3354 10367,3355 10374,3355 10381,3355 10387,3355 10394,3355 10401,3354 10408,3353 10415,3352 10422,3350 10428,3348 10435,3346 10441,3343 10448,3341 10454,3337 10460,3334 10466,3331 10472,3327 10477,3323 10483,3318 10488,3314 10493,3309 10498,3304 10502,3299 10507,3293 10511,3288 10515,3282 10518,3276 10522,3270 10525,3264 10527,3257 10530,3251 10532,3244 10534,3238 10536,3231 10537,3224 10538,3217 10539,3210 10539,3203 10540,3196 Z"/>
 <path fill="none" stroke="rgb(0,132,209)" stroke-linejoin="round" d="M 10540,3196 L 10539,3189 10539,3183 10538,3176 10537,3169 10536,3162 10534,3155 10532,3149 10530,3142 10527,3136 10525,3129 10522,3123 10518,3117 10515,3111 10511,3105 10507,3100 10502,3094 10498,3089 10493,3084 10488,3079 10483,3075 10477,3070 10472,3066 10466,3062 10460,3059 10454,3055 10448,3052 10441,3050 10435,3047 10428,3045 10422,3043 10415,3041 10408,3040 10401,3039 10394,3038 10387,3038 10381,3037 10374,3038 10367,3038 10360,3039 10353,3040 10346,3041 10339,3043 10333,3045 10326,3047 10320,3050 10313,3052 10307,3055 10301,3059 10295,3062 10289,3066 10284,3070 10278,3075 10273,3079 10268,3084 10263,3089 10259,3094 10254,3100 10250,3105 10246,3111 10243,3117 10239,3123 10236,3129 10234,3136 10231,3142 10229,3149 10227,3155 10225,3162 10224,3169 10223,3176 10222,3183 10222,3189 10222,3196 10222,3203 10222,3210 10223,3217 10224,3224 10225,3231 10227,3238 10229,3244 10231,3251 10234,3257 10236,3264 10239,3270 10243,3276 10246,3282 10250,3288 10254,3293 10259,3299 10263,3304 10268,3309 10273,3314 10278,3318 10284,3323 10289,3327 10295,3331 10301,3334 10307,3337 10313,3341 10320,3343 10326,3346 10333,3348 10339,3350 10346,3352 10353,3353 10360,3354 10367,3355 10374,3355 10381,3355 10387,3355 10394,3355 10401,3354 10408,3353 10415,3352 10422,3350 10428,3348 10435,3346 10441,3343 10448,3341 10454,3337 10460,3334 10466,3331 10472,3327 10477,3323 10483,3318 10488,3314 10493,3309 10498,3304 10502,3299 10507,3293 10511,3288 10515,3282 10518,3276 10522,3270 10525,3264 10527,3257 10530,3251 10532,3244 10534,3238 10536,3231 10537,3224 10538,3217 10539,3210 10539,3203 10540,3196 Z"/>
 <path fill="rgb(0,132,209)" stroke="none" d="M 12648,2585 L 12648,2578 12647,2571 12647,2564 12646,2558 12644,2551 12643,2544 12641,2537 12638,2531 12636,2524 12633,2518 12630,2512 12627,2506 12623,2500 12619,2494 12615,2488 12611,2483 12606,2478 12601,2473 12596,2468 12591,2463 12586,2459 12580,2455 12574,2451 12569,2447 12562,2444 12556,2441 12550,2438 12543,2436 12537,2433 12530,2432 12523,2430 12517,2429 12510,2427 12503,2427 12496,2426 12489,2426 12482,2426 12475,2427 12468,2427 12461,2429 12455,2430 12448,2432 12441,2433 12435,2436 12428,2438 12422,2441 12416,2444 12410,2447 12404,2451 12398,2455 12392,2459 12387,2463 12382,2468 12377,2473 12372,2478 12367,2483 12363,2488 12359,2494 12355,2500 12351,2506 12348,2512 12345,2518 12342,2524 12340,2531 12337,2537 12335,2544 12334,2551 12332,2558 12331,2564 12331,2571 12330,2578 12330,2585 12330,2592 12331,2599 12331,2606 12332,2613 12334,2620 12335,2626 12337,2633 12340,2639 12342,2646 12345,2652 12348,2659 12351,2665 12355,2671 12359,2676 12363,2682 12367,2687 12372,2693 12377,2698 12382,2702 12387,2707 12392,2711 12398,2715 12404,2719 12410,2723 12416,2726 12422,2729 12428,2732 12435,2735 12441,2737 12448,2739 12455,2740 12461,2742 12468,2743 12475,2744 12482,2744 12489,2744 12496,2744 12503,2744 12510,2743 12517,2742 12523,2740 12530,2739 12537,2737 12543,2735 12550,2732 12556,2729 12562,2726 12569,2723 12574,2719 12580,2715 12586,2711 12591,2707 12596,2702 12601,2698 12606,2693 12611,2687 12615,2682 12619,2676 12623,2671 12627,2665 12630,2659 12633,2652 12636,2646 12638,2639 12641,2633 12643,2626 12644,2620 12646,2613 12647,2606 12647,2599 12648,2592 12648,2585 Z"/>
 <path fill="none" stroke="rgb(0,132,209)" stroke-linejoin="round" d="M 12648,2585 L 12648,2578 12647,2571 12647,2564 12646,2558 12644,2551 12643,2544 12641,2537 12638,2531 12636,2524 12633,2518 12630,2512 12627,2506 12623,2500 12619,2494 12615,2488 12611,2483 12606,2478 12601,2473 12596,2468 12591,2463 12586,2459 12580,2455 12574,2451 12569,2447 12562,2444 12556,2441 12550,2438 12543,2436 12537,2433 12530,2432 12523,2430 12517,2429 12510,2427 12503,2427 12496,2426 12489,2426 12482,2426 12475,2427 12468,2427 12461,2429 12455,2430 12448,2432 12441,2433 12435,2436 12428,2438 12422,2441 12416,2444 12410,2447 12404,2451 12398,2455 12392,2459 12387,2463 12382,2468 12377,2473 12372,2478 12367,2483 12363,2488 12359,2494 12355,2500 12351,2506 12348,2512 12345,2518 12342,2524 12340,2531 12337,2537 12335,2544 12334,2551 12332,2558 12331,2564 12331,2571 12330,2578 12330,2585 12330,2592 12331,2599 12331,2606 12332,2613 12334,2620 12335,2626 12337,2633 12340,2639 12342,2646 12345,2652 12348,2659 12351,2665 12355,2671 12359,2676 12363,2682 12367,2687 12372,2693 12377,2698 12382,2702 12387,2707 12392,2711 12398,2715 12404,2719 12410,2723 12416,2726 12422,2729 12428,2732 12435,2735 12441,2737 12448,2739 12455,2740 12461,2742 12468,2743 12475,2744 12482,2744 12489,2744 12496,2744 12503,2744 12510,2743 12517,2742 12523,2740 12530,2739 12537,2737 12543,2735 12550,2732 12556,2729 12562,2726 12569,2723 12574,2719 12580,2715 12586,2711 12591,2707 12596,2702 12601,2698 12606,2693 12611,2687 12615,2682 12619,2676 12623,2671 12627,2665 12630,2659 12633,2652 12636,2646 12638,2639 12641,2633 12643,2626 12644,2620 12646,2613 12647,2606 12647,2599 12648,2592 12648,2585 Z"/>
 <path fill="rgb(0,132,209)" stroke="none" d="M 14757,1802 L 14756,1795 14756,1788 14755,1781 14754,1774 14753,1767 14751,1761 14749,1754 14747,1747 14744,1741 14742,1735 14739,1728 14735,1722 14732,1716 14728,1711 14724,1705 14719,1700 14715,1694 14710,1689 14705,1684 14700,1680 14694,1676 14689,1671 14683,1668 14677,1664 14671,1661 14665,1658 14658,1655 14652,1652 14645,1650 14639,1648 14632,1646 14625,1645 14618,1644 14611,1643 14604,1643 14598,1643 14591,1643 14584,1643 14577,1644 14570,1645 14563,1646 14556,1648 14550,1650 14543,1652 14537,1655 14530,1658 14524,1661 14518,1664 14512,1668 14506,1671 14501,1676 14495,1680 14490,1684 14485,1689 14480,1694 14476,1700 14471,1705 14467,1711 14463,1716 14460,1722 14456,1728 14453,1735 14451,1741 14448,1747 14446,1754 14444,1761 14442,1767 14441,1774 14440,1781 14439,1788 14439,1795 14439,1802 14439,1809 14439,1816 14440,1822 14441,1829 14442,1836 14444,1843 14446,1850 14448,1856 14451,1863 14453,1869 14456,1875 14460,1881 14463,1887 14467,1893 14471,1899 14476,1904 14480,1909 14485,1914 14490,1919 14495,1924 14501,1928 14506,1932 14512,1936 14518,1939 14524,1943 14530,1946 14537,1949 14543,1951 14550,1953 14556,1955 14563,1957 14570,1958 14577,1959 14584,1960 14591,1961 14598,1961 14604,1961 14611,1960 14618,1959 14625,1958 14632,1957 14639,1955 14645,1953 14652,1951 14658,1949 14665,1946 14671,1943 14677,1939 14683,1936 14689,1932 14694,1928 14700,1924 14705,1919 14710,1914 14715,1909 14719,1904 14724,1899 14728,1893 14732,1887 14735,1881 14739,1875 14742,1869 14744,1863 14747,1856 14749,1850 14751,1843 14753,1836 14754,1829 14755,1822 14756,1816 14756,1809 14757,1802 Z"/>
 <path fill="none" stroke="rgb(0,132,209)" stroke-linejoin="round" d="M 14757,1802 L 14756,1795 14756,1788 14755,1781 14754,1774 14753,1767 14751,1761 14749,1754 14747,1747 14744,1741 14742,1735 14739,1728 14735,1722 14732,1716 14728,1711 14724,1705 14719,1700 14715,1694 14710,1689 14705,1684 14700,1680 14694,1676 14689,1671 14683,1668 14677,1664 14671,1661 14665,1658 14658,1655 14652,1652 14645,1650 14639,1648 14632,1646 14625,1645 14618,1644 14611,1643 14604,1643 14598,1643 14591,1643 14584,1643 14577,1644 14570,1645 14563,1646 14556,1648 14550,1650 14543,1652 14537,1655 14530,1658 14524,1661 14518,1664 14512,1668 14506,1671 14501,1676 14495,1680 14490,1684 14485,1689 14480,1694 14476,1700 14471,1705 14467,1711 14463,1716 14460,1722 14456,1728 14453,1735 14451,1741 14448,1747 14446,1754 14444,1761 14442,1767 14441,1774 14440,1781 14439,1788 14439,1795 14439,1802 14439,1809 14439,1816 14440,1822 14441,1829 14442,1836 14444,1843 14446,1850 14448,1856 14451,1863 14453,1869 14456,1875 14460,1881 14463,1887 14467,1893 14471,1899 14476,1904 14480,1909 14485,1914 14490,1919 14495,1924 14501,1928 14506,1932 14512,1936 14518,1939 14524,1943 14530,1946 14537,1949 14543,1951 14550,1953 14556,1955 14563,1957 14570,1958 14577,1959 14584,1960 14591,1961 14598,1961 14604,1961 14611,1960 14618,1959 14625,1958 14632,1957 14639,1955 14645,1953 14652,1951 14658,1949 14665,1946 14671,1943 14677,1939 14683,1936 14689,1932 14694,1928 14700,1924 14705,1919 14710,1914 14715,1909 14719,1904 14724,1899 14728,1893 14732,1887 14735,1881 14739,1875 14742,1869 14744,1863 14747,1856 14749,1850 14751,1843 14753,1836 14754,1829 14755,1822 14756,1816 14756,1809 14757,1802 Z"/>
 <text class="TextShape"><tspan class="TextParagraph" font-family="Liberation Sans, sans-serif" font-size="353px" font-weight="400"><tspan class="TextPosition" x="1577" y="7944"/><tspan class="TextPosition" x="1577" y="7944"><tspan fill="rgb(0,0,0)" stroke="none">2010</tspan></tspan></tspan></text>
 <text class="TextShape"><tspan class="TextParagraph" font-family="Liberation Sans, sans-serif" font-size="353px" font-weight="400"><tspan class="TextPosition" x="3685" y="7944"/><tspan class="TextPosition" x="3685" y="7944"><tspan fill="rgb(0,0,0)" stroke="none">2011</tspan></tspan></tspan></text>
 <text class="TextShape"><tspan class="TextParagraph" font-family="Liberation Sans, sans-serif" font-size="353px" font-weight="400"><tspan class="TextPosition" x="5794" y="7944"/><tspan class="TextPosition" x="5794" y="7944"><tspan fill="rgb(0,0,0)" stroke="none">2012</tspan></tspan></tspan></text>
 <text class="TextShape"><tspan class="TextParagraph" font-family="Liberation Sans, sans-serif" font-size="353px" font-weight="400"><tspan class="TextPosition" x="7902" y="7944"/><tspan class="TextPosition" x="7902" y="7944"><tspan fill="rgb(0,0,0)" stroke="none">2013</tspan></tspan></tspan></text>
 <text class="TextShape"><tspan class="TextParagraph" font-family="Liberation Sans, sans-serif" font-size="353px" font-weight="400"><tspan class="TextPosition" x="10011" y="7944"/><tspan class="TextPosition" x="10011" y="7944"><tspan fill="rgb(0,0,0)" stroke="none">2014</tspan></tspan></tspan></text>
 <text class="TextShape"><tspan class="TextParagraph" font-family="Liberation Sans, sans-serif" font-size="353px" font-weight="400"><tspan class="TextPosition" x="12119" y="7944"/><tspan class="TextPosition" x="12119" y="7944"><tspan fill="rgb(0,0,0)" stroke="none">2020</tspan></tspan></tspan></text>
 <text class="TextShape"><tspan class="TextParagraph" font-family="Liberation Sans, sans-serif" font-size="353px" font-weight="400"><tspan class="TextPosition" x="14228" y="7944"/><tspan class="TextPosition" x="14228" y="7944"><tspan fill="rgb(0,0,0)" stroke="none">2030</tspan></tspan></tspan></text>
 <text class="TextShape"><tspan class="TextParagraph" font-family="Liberation Sans, sans-serif" font-size="353px" font-weight="400"><tspan class="TextPosition" x="1663" y="7647"/><tspan class="TextPosition" x="1663" y="7647"><tspan fill="rgb(0,0,0)" stroke="none">0</tspan></tspan></tspan></text>
 <text class="TextShape"><tspan class="TextParagraph" font-family="Liberation Sans, sans-serif" font-size="353px" font-weight="400"><tspan class="TextPosition" x="922" y="6456"/><tspan class="TextPosition" x="922" y="6456"><tspan fill="rgb(0,0,0)" stroke="none">50000</tspan></tspan></tspan></text>
 <text class="TextShape"><tspan class="TextParagraph" font-family="Liberation Sans, sans-serif" font-size="353px" font-weight="400"><tspan class="TextPosition" x="737" y="5265"/><tspan class="TextPosition" x="737" y="5265"><tspan fill="rgb(0,0,0)" stroke="none">100000</tspan></tspan></tspan></text>
 <text class="TextShape"><tspan class="TextParagraph" font-family="Liberation Sans, sans-serif" font-size="353px" font-weight="400"><tspan class="TextPosition" x="737" y="4074"/><tspan class="TextPosition" x="737" y="4074"><tspan fill="rgb(0,0,0)" stroke="none">150000</tspan></tspan></tspan></text>
 <text class="TextShape"><tspan class="TextParagraph" font-family="Liberation Sans, sans-serif" font-size="353px" font-weight="400"><tspan class="TextPosition" x="737" y="2884"/><tspan class="TextPosition" x="737" y="2884"><tspan fill="rgb(0,0,0)" stroke="none">200000</tspan></tspan></tspan></text>
 <text class="TextShape"><tspan class="TextParagraph" font-family="Liberation Sans, sans-serif" font-size="353px" font-weight="400"><tspan class="TextPosition" x="737" y="1693"/><tspan class="TextPosition" x="737" y="1693"><tspan fill="rgb(0,0,0)" stroke="none">250000</tspan></tspan></tspan></text>
 <text class="TextShape"><tspan class="TextParagraph" font-family="Liberation Sans, sans-serif" font-size="353px" font-weight="400"><tspan class="TextPosition" x="737" y="502"/><tspan class="TextPosition" x="737" y="502"><tspan fill="rgb(0,0,0)" stroke="none">300000</tspan></tspan></tspan></text>
 <text class="TextShape"><tspan class="TextParagraph" font-family="Calibri, sans-serif" font-size="353px" font-weight="700"><tspan class="TextPosition" x="13355" y="7164"/><tspan class="TextPosition" x="13355" y="7164"><tspan fill="rgb(0,0,0)" stroke="none">Year</tspan></tspan></tspan></text>
 <text class="TextShape" transform="translate(2895,2443) rotate(-90) translate(-2895,-2443)"><tspan class="TextParagraph" font-family="Calibri, sans-serif" font-size="353px" font-weight="700"><tspan class="TextPosition" x="2895" y="2443"/><tspan class="TextPosition" x="2895" y="2443"><tspan fill="rgb(0,0,0)" stroke="none">Inhabitants</tspan></tspan></tspan></text>
</svg>