<?xml version="1.0" encoding="UTF-8" standalone="no"?>
<svg
   xmlns:dc="http://purl.org/dc/elements/1.1/"
   xmlns:cc="http://creativecommons.org/ns#"
   xmlns:rdf="http://www.w3.org/1999/02/22-rdf-syntax-ns#"
   xmlns:svg="http://www.w3.org/2000/svg"
   xmlns="http://www.w3.org/2000/svg"
   xmlns:sodipodi="http://sodipodi.sourceforge.net/DTD/sodipodi-0.dtd"
   xmlns:inkscape="http://www.inkscape.org/namespaces/inkscape"
   width="154mm"
   height="94mm"
   viewBox="0 0 15400 9400"
   version="1.1"
   stroke-width="28.222"
   stroke-linejoin="round"
   xml:space="preserve"
   id="svg2"
   inkscape:version="0.91 r"
   sodipodi:docname="I_number_elderly2.svg"><metadata
     id="metadata232"><rdf:RDF><cc:Work
         rdf:about=""><dc:format>image/svg+xml</dc:format><dc:type
           rdf:resource="http://purl.org/dc/dcmitype/StillImage" /><dc:title></dc:title></cc:Work></rdf:RDF></metadata><defs
     id="defs230" /><sodipodi:namedview
     pagecolor="#ffffff"
     bordercolor="#666666"
     borderopacity="1"
     objecttolerance="10"
     gridtolerance="10"
     guidetolerance="10"
     inkscape:pageopacity="0"
     inkscape:pageshadow="2"
     inkscape:window-width="1366"
     inkscape:window-height="716"
     id="namedview228"
     showgrid="false"
     inkscape:zoom="1.2205195"
     inkscape:cx="226.71392"
     inkscape:cy="196.73376"
     inkscape:window-x="0"
     inkscape:window-y="0"
     inkscape:window-maximized="1"
     inkscape:current-layer="svg2" /><path
     d="m 7702.6327,8719.0732 -7577.62916,0 0,-8557.62919 15155.25846,0 0,8557.62919 -7577.6293,0 z"
     id="path6"
     inkscape:connector-curvature="0"
     style="fill:#ffffff;stroke:none" /><path
     d="m 125.00354,8717.8752 0,-179.7066"
     id="path8"
     inkscape:connector-curvature="0"
     style="fill:none;stroke:#878787;stroke-width:31.14914703;stroke-linejoin:round" /><path
     d="m 2650.4805,8717.8752 0,-179.7066"
     id="path10"
     inkscape:connector-curvature="0"
     style="fill:none;stroke:#878787;stroke-width:31.14914703;stroke-linejoin:round" /><path
     d="m 5177.1556,8717.8752 0,-179.7066"
     id="path12"
     inkscape:connector-curvature="0"
     style="fill:none;stroke:#878787;stroke-width:31.14914703;stroke-linejoin:round" /><path
     d="m 7701.4346,8717.8752 0,-179.7066"
     id="path14"
     inkscape:connector-curvature="0"
     style="fill:none;stroke:#878787;stroke-width:31.14914703;stroke-linejoin:round" /><path
     d="m 10228.11,8717.8752 0,-179.7066"
     id="path16"
     inkscape:connector-curvature="0"
     style="fill:none;stroke:#878787;stroke-width:31.14914703;stroke-linejoin:round" /><path
     d="m 12753.586,8717.8752 0,-179.7066"
     id="path18"
     inkscape:connector-curvature="0"
     style="fill:none;stroke:#878787;stroke-width:31.14914703;stroke-linejoin:round" /><path
     d="m 15280.262,8717.8752 0,-179.7066"
     id="path20"
     inkscape:connector-curvature="0"
     style="fill:none;stroke:#878787;stroke-width:31.14914703;stroke-linejoin:round" /><path
     d="m 125.00354,8717.8752 15155.25846,0"
     id="path22"
     inkscape:connector-curvature="0"
     style="fill:none;stroke:#878787;stroke-width:31.14914703;stroke-linejoin:round" /><path
     d="m 125.00354,8717.8752 179.7066,0"
     id="path24"
     inkscape:connector-curvature="0"
     style="fill:none;stroke:#878787;stroke-width:31.14914703;stroke-linejoin:round" /><path
     d="m 125.00354,7291.0046 179.7066,0"
     id="path26"
     inkscape:connector-curvature="0"
     style="fill:none;stroke:#878787;stroke-width:31.14914703;stroke-linejoin:round" /><path
     d="m 125.00354,5864.1341 179.7066,0"
     id="path28"
     inkscape:connector-curvature="0"
     style="fill:none;stroke:#878787;stroke-width:31.14914703;stroke-linejoin:round" /><path
     d="m 125.00354,4438.4616 179.7066,0"
     id="path30"
     inkscape:connector-curvature="0"
     style="fill:none;stroke:#878787;stroke-width:31.14914703;stroke-linejoin:round" /><path
     d="m 125.00354,3012.789 179.7066,0"
     id="path32"
     inkscape:connector-curvature="0"
     style="fill:none;stroke:#878787;stroke-width:31.14914703;stroke-linejoin:round" /><path
     d="m 125.00354,1585.9185 179.7066,0"
     id="path34"
     inkscape:connector-curvature="0"
     style="fill:none;stroke:#878787;stroke-width:31.14914703;stroke-linejoin:round" /><path
     d="m 125.00354,159.04801 179.7066,0"
     id="path36"
     inkscape:connector-curvature="0"
     style="fill:none;stroke:#878787;stroke-width:31.14914703;stroke-linejoin:round" /><path
     d="m 125.00354,8717.8752 0,-8558.82719"
     id="path38"
     inkscape:connector-curvature="0"
     style="fill:none;stroke:#878787;stroke-width:31.14914703;stroke-linejoin:round" /><path
     d="m 315.49264,3954.4517 -1.1981,-8.3863 0,-8.3863 -1.198,-8.3862 -1.1981,-8.3864 -1.198,-8.3863 -2.3961,-7.1882 -2.3961,-8.3864 -2.396,-8.3863 -3.5942,-7.1882 -2.3961,-7.1884 -3.5941,-8.3863 -4.7922,-7.1882 -3.5941,-7.1883 -4.7922,-5.9901 -4.7922,-7.1884 -5.9902,-5.9902 -4.7922,-7.1882 -5.9902,-5.9903 -5.9902,-4.7922 -5.9902,-5.9901 -7.1884,-4.7922 -5.9901,-4.7922 -7.1883,-4.7922 -7.1882,-4.7921 -7.1884,-3.5941 -7.1882,-3.5943 -8.3863,-3.5941 -7.1883,-3.5941 -8.3863,-2.3961 -7.1882,-2.3961 -8.3864,-1.198 -8.3863,-2.3961 -8.3863,-1.198 -8.3863,-1.1981 -8.3863,0 -7.1883,0 -8.3863,0 -8.3863,0 -8.386202,1.1981 -8.3864,1.198 -8.3863,2.3961 -8.3863,1.198 -7.1882,2.3961 -8.3864,2.3961 -7.1882,3.5941 -8.3863,3.5941 -7.1884,3.5943 -7.1882,3.5941 -7.1883,4.7921 -7.1882,4.7922 -5.9903004,4.7922 -7.1882,4.7922 -5.9902,5.9901 -5.9902996,4.7922 -5.9901,5.9903 -4.7922,7.1882 -5.9903,5.9902 -4.7921,7.1884 -4.7922,5.9901 -3.5941,7.1883 -4.7922,7.1882 -3.5941,8.3863 -2.3962,7.1884 -3.5941,7.1882 -2.396,8.3863 -2.3961,8.3864 -2.3961,7.1882 -1.1981,8.3863 -1.198,8.3864 -1.1981,8.3862 0,8.3863 0,8.3863 0,8.3863 0,8.3863 1.1981,8.3864 1.198,7.1882 1.1981,8.3863 2.3961,8.3863 2.3961,8.3864 2.396,7.1882 3.5941,8.3863 2.3962,7.1883 3.5941,7.1882 4.7922,7.1884 3.5941,7.1882 4.7922,7.1883 4.7921,7.1882 5.9903,5.9903 4.7922,5.9901 5.9901,5.9903 5.9902996,5.9902 5.9902,5.9903 7.1882,4.7921 5.9903004,4.7921 7.1882,4.7922 7.1883,4.7922 7.1882,3.5942 7.1884,3.5941 8.3863,3.5941 7.1882,2.3962 8.3864,3.5941 7.1882,1.198 8.3863,2.3961 8.3863,1.198 8.3864,2.3961 8.386202,0 8.3863,1.1981 8.3863,0 7.1883,0 8.3863,-1.1981 8.3863,0 8.3863,-2.3961 8.3863,-1.198 8.3864,-2.3961 7.1882,-1.198 8.3863,-3.5941 7.1883,-2.3962 8.3863,-3.5941 7.1882,-3.5941 7.1884,-3.5942 7.1882,-4.7922 7.1883,-4.7922 5.9901,-4.7921 7.1884,-4.7921 5.9902,-5.9903 5.9902,-5.9902 5.9902,-5.9903 4.7922,-5.9901 5.9902,-5.9903 4.7922,-7.1882 4.7922,-7.1883 3.5941,-7.1882 4.7922,-7.1884 3.5941,-7.1882 2.3961,-7.1883 3.5942,-8.3863 2.396,-7.1882 2.3961,-8.3864 2.3961,-8.3863 1.198,-8.3863 1.1981,-7.1882 1.198,-8.3864 0,-8.3863 1.1981,-8.3863 z"
     id="path40"
     inkscape:connector-curvature="0"
     style="fill:#0084d1;stroke:none" /><path
     d="m 315.49264,3954.4517 -1.1981,-8.3863 0,-8.3863 -1.198,-8.3862 -1.1981,-8.3864 -1.198,-8.3863 -2.3961,-7.1882 -2.3961,-8.3864 -2.396,-8.3863 -3.5942,-7.1882 -2.3961,-7.1884 -3.5941,-8.3863 -4.7922,-7.1882 -3.5941,-7.1883 -4.7922,-5.9901 -4.7922,-7.1884 -5.9902,-5.9902 -4.7922,-7.1882 -5.9902,-5.9903 -5.9902,-4.7922 -5.9902,-5.9901 -7.1884,-4.7922 -5.9901,-4.7922 -7.1883,-4.7922 -7.1882,-4.7921 -7.1884,-3.5941 -7.1882,-3.5943 -8.3863,-3.5941 -7.1883,-3.5941 -8.3863,-2.3961 -7.1882,-2.3961 -8.3864,-1.198 -8.3863,-2.3961 -8.3863,-1.198 -8.3863,-1.1981 -8.3863,0 -7.1883,0 -8.3863,0 -8.3863,0 -8.386202,1.1981 -8.3864,1.198 -8.3863,2.3961 -8.3863,1.198 -7.1882,2.3961 -8.3864,2.3961 -7.1882,3.5941 -8.3863,3.5941 -7.1884,3.5943 -7.1882,3.5941 -7.1883,4.7921 -7.1882,4.7922 -5.9903004,4.7922 -7.1882,4.7922 -5.9902,5.9901 -5.9902996,4.7922 -5.9901,5.9903 -4.7922,7.1882 -5.9903,5.9902 -4.7921,7.1884 -4.7922,5.9901 -3.5941,7.1883 -4.7922,7.1882 -3.5941,8.3863 -2.3962,7.1884 -3.5941,7.1882 -2.396,8.3863 -2.3961,8.3864 -2.3961,7.1882 -1.1981,8.3863 -1.198,8.3864 -1.1981,8.3862 0,8.3863 0,8.3863 0,8.3863 0,8.3863 1.1981,8.3864 1.198,7.1882 1.1981,8.3863 2.3961,8.3863 2.3961,8.3864 2.396,7.1882 3.5941,8.3863 2.3962,7.1883 3.5941,7.1882 4.7922,7.1884 3.5941,7.1882 4.7922,7.1883 4.7921,7.1882 5.9903,5.9903 4.7922,5.9901 5.9901,5.9903 5.9902996,5.9902 5.9902,5.9903 7.1882,4.7921 5.9903004,4.7921 7.1882,4.7922 7.1883,4.7922 7.1882,3.5942 7.1884,3.5941 8.3863,3.5941 7.1882,2.3962 8.3864,3.5941 7.1882,1.198 8.3863,2.3961 8.3863,1.198 8.3864,2.3961 8.386202,0 8.3863,1.1981 8.3863,0 7.1883,0 8.3863,-1.1981 8.3863,0 8.3863,-2.3961 8.3863,-1.198 8.3864,-2.3961 7.1882,-1.198 8.3863,-3.5941 7.1883,-2.3962 8.3863,-3.5941 7.1882,-3.5941 7.1884,-3.5942 7.1882,-4.7922 7.1883,-4.7922 5.9901,-4.7921 7.1884,-4.7921 5.9902,-5.9903 5.9902,-5.9902 5.9902,-5.9903 4.7922,-5.9901 5.9902,-5.9903 4.7922,-7.1882 4.7922,-7.1883 3.5941,-7.1882 4.7922,-7.1884 3.5941,-7.1882 2.3961,-7.1883 3.5942,-8.3863 2.396,-7.1882 2.3961,-8.3864 2.3961,-8.3863 1.198,-8.3863 1.1981,-7.1882 1.198,-8.3864 0,-8.3863 1.1981,-8.3863 z"
     id="path42"
     inkscape:connector-curvature="0"
     style="fill:#0084d1;stroke:none;stroke-width:33.81119919;stroke-linejoin:round" /><path
     d="m 2840.9696,3857.4102 0,-8.3863 -1.198,-8.3863 0,-8.3864 -1.1981,-8.3863 -2.3961,-7.1882 -1.198,-8.3863 -2.3961,-8.3864 -3.5941,-7.1882 -2.3962,-8.3863 -3.5941,-7.1883 -3.5941,-7.1883 -3.5941,-7.1883 -4.7922,-7.1882 -4.7922,-7.1882 -4.7922,-7.1883 -4.7921,-5.9903 -5.9903,-5.9901 -5.9901,-5.9903 -5.9903,-5.9902 -5.9902,-5.9902 -5.9903,-4.7922 -7.1882,-4.7921 -7.1882,-4.7922 -5.9903,-4.7922 -8.3863,-3.5942 -7.1883,-3.5941 -7.1882,-3.5941 -8.3863,-2.3961 -7.1883,-3.5942 -8.3863,-2.396 -8.3863,-1.1981 -7.1883,-2.396 -8.3863,-1.1981 -8.3863,0 -8.3863,-1.1981 -8.3864,0 -8.3863,0 -8.3863,1.1981 -8.3862,0 -8.3863,1.1981 -7.1884,2.396 -8.3862,1.1981 -8.3863,2.396 -7.1884,3.5942 -8.3862,2.3961 -7.1883,3.5941 -7.1883,3.5941 -7.1882,3.5942 -7.1883,4.7922 -7.1882,4.7922 -7.1883,4.7921 -5.9902,4.7922 -5.9903,5.9902 -5.9902,5.9902 -5.9902,5.9903 -5.9902,5.9901 -4.7922,5.9903 -4.7922,7.1883 -4.7922,7.1882 -4.7921,7.1882 -3.5941,7.1883 -3.5941,7.1883 -3.5943,7.1883 -2.396,8.3863 -3.5941,7.1882 -2.3961,8.3864 -1.198,8.3863 -2.3962,7.1882 -1.198,8.3863 0,8.3864 -1.198,8.3863 0,8.3863 0,8.3862 1.198,8.3863 0,8.3864 1.198,8.3863 2.3962,7.1882 1.198,8.3863 2.3961,8.3864 3.5941,7.1882 2.396,8.3863 3.5943,7.1883 3.5941,7.1883 3.5941,8.3863 4.7921,5.9902 4.7922,7.1882 4.7922,7.1883 4.7922,5.9903 5.9902,5.9901 5.9902,5.9903 5.9902,5.9902 5.9903,5.9902 5.9902,4.7922 7.1883,4.7922 7.1882,4.7921 7.1883,4.7922 7.1882,3.5942 7.1883,3.5941 7.1883,3.5941 8.3862,2.3962 7.1884,3.5941 8.3863,2.396 8.3862,1.1981 7.1884,2.396 8.3863,1.1981 8.3862,0 8.3863,1.1981 8.3863,0 8.3864,0 8.3863,-1.1981 8.3863,0 8.3863,-1.1981 7.1883,-2.396 8.3863,-1.1981 8.3863,-2.396 7.1883,-3.5941 8.3863,-2.3962 7.1882,-3.5941 7.1883,-3.5941 8.3863,-3.5942 5.9903,-4.7922 7.1882,-4.7921 7.1882,-4.7922 5.9903,-4.7922 5.9902,-5.9902 5.9903,-5.9902 5.9901,-5.9903 5.9903,-5.9901 4.7921,-5.9903 4.7922,-7.1883 4.7922,-7.1882 4.7922,-5.9902 3.5941,-8.3863 3.5941,-7.1883 3.5941,-7.1883 2.3962,-8.3863 3.5941,-7.1882 2.3961,-8.3864 1.198,-8.3863 2.3961,-7.1882 1.1981,-8.3863 0,-8.3864 1.198,-8.3863 0,-8.3862 z"
     id="path44"
     inkscape:connector-curvature="0"
     style="fill:#0084d1;stroke:none" /><path
     d="m 2840.9696,3857.4102 0,-8.3863 -1.198,-8.3863 0,-8.3864 -1.1981,-8.3863 -2.3961,-7.1882 -1.198,-8.3863 -2.3961,-8.3864 -3.5941,-7.1882 -2.3962,-8.3863 -3.5941,-7.1883 -3.5941,-7.1883 -3.5941,-7.1883 -4.7922,-7.1882 -4.7922,-7.1882 -4.7922,-7.1883 -4.7921,-5.9903 -5.9903,-5.9901 -5.9901,-5.9903 -5.9903,-5.9902 -5.9902,-5.9902 -5.9903,-4.7922 -7.1882,-4.7921 -7.1882,-4.7922 -5.9903,-4.7922 -8.3863,-3.5942 -7.1883,-3.5941 -7.1882,-3.5941 -8.3863,-2.3961 -7.1883,-3.5942 -8.3863,-2.396 -8.3863,-1.1981 -7.1883,-2.396 -8.3863,-1.1981 -8.3863,0 -8.3863,-1.1981 -8.3864,0 -8.3863,0 -8.3863,1.1981 -8.3862,0 -8.3863,1.1981 -7.1884,2.396 -8.3862,1.1981 -8.3863,2.396 -7.1884,3.5942 -8.3862,2.3961 -7.1883,3.5941 -7.1883,3.5941 -7.1882,3.5942 -7.1883,4.7922 -7.1882,4.7922 -7.1883,4.7921 -5.9902,4.7922 -5.9903,5.9902 -5.9902,5.9902 -5.9902,5.9903 -5.9902,5.9901 -4.7922,5.9903 -4.7922,7.1883 -4.7922,7.1882 -4.7921,7.1882 -3.5941,7.1883 -3.5941,7.1883 -3.5943,7.1883 -2.396,8.3863 -3.5941,7.1882 -2.3961,8.3864 -1.198,8.3863 -2.3962,7.1882 -1.198,8.3863 0,8.3864 -1.198,8.3863 0,8.3863 0,8.3862 1.198,8.3863 0,8.3864 1.198,8.3863 2.3962,7.1882 1.198,8.3863 2.3961,8.3864 3.5941,7.1882 2.396,8.3863 3.5943,7.1883 3.5941,7.1883 3.5941,8.3863 4.7921,5.9902 4.7922,7.1882 4.7922,7.1883 4.7922,5.9903 5.9902,5.9901 5.9902,5.9903 5.9902,5.9902 5.9903,5.9902 5.9902,4.7922 7.1883,4.7922 7.1882,4.7921 7.1883,4.7922 7.1882,3.5942 7.1883,3.5941 7.1883,3.5941 8.3862,2.3962 7.1884,3.5941 8.3863,2.396 8.3862,1.1981 7.1884,2.396 8.3863,1.1981 8.3862,0 8.3863,1.1981 8.3863,0 8.3864,0 8.3863,-1.1981 8.3863,0 8.3863,-1.1981 7.1883,-2.396 8.3863,-1.1981 8.3863,-2.396 7.1883,-3.5941 8.3863,-2.3962 7.1882,-3.5941 7.1883,-3.5941 8.3863,-3.5942 5.9903,-4.7922 7.1882,-4.7921 7.1882,-4.7922 5.9903,-4.7922 5.9902,-5.9902 5.9903,-5.9902 5.9901,-5.9903 5.9903,-5.9901 4.7921,-5.9903 4.7922,-7.1883 4.7922,-7.1882 4.7922,-5.9902 3.5941,-8.3863 3.5941,-7.1883 3.5941,-7.1883 2.3962,-8.3863 3.5941,-7.1882 2.3961,-8.3864 1.198,-8.3863 2.3961,-7.1882 1.1981,-8.3863 0,-8.3864 1.198,-8.3863 0,-8.3862 z"
     id="path46"
     inkscape:connector-curvature="0"
     style="fill:#0084d1;stroke:none;stroke-width:33.81119919;stroke-linejoin:round" /><path
     d="m 5367.6446,3753.1803 -1.198,-8.3863 0,-8.3863 -1.198,-8.3863 -1.1981,-8.3863 -1.1981,-8.3863 -2.396,-7.1883 -2.3961,-8.3863 -2.3961,-7.1883 -3.5941,-8.3863 -2.3961,-7.1882 -3.5941,-8.3863 -4.7922,-7.1883 -3.5941,-7.1882 -4.7922,-5.9903 -4.7922,-7.1882 -5.9902,-5.9903 -4.7922,-7.1883 -5.9903,-5.9901 -5.9901,-4.7922 -5.9903,-5.9903 -7.1882,-4.7921 -5.9902,-4.7922 -7.1884,-4.7922 -7.1882,-4.7922 -7.1882,-3.5941 -7.1883,-3.5941 -8.3863,-3.5942 -7.1883,-3.5941 -8.3863,-2.3961 -7.1882,-2.3961 -8.3863,-1.198 -8.3864,-2.3961 -8.3863,-1.1981 -8.3863,0 -8.3863,-1.198 -7.1883,0 -8.3863,0 -8.3863,1.198 -8.3863,0 -8.3863,1.1981 -8.3864,2.3961 -8.3862,1.198 -7.1883,2.3961 -8.3863,2.3961 -7.1883,3.5941 -8.3863,3.5942 -7.1882,3.5941 -7.1883,3.5941 -7.1882,4.7922 -7.1883,4.7922 -5.9902,4.7922 -7.1883,4.7921 -5.9903,5.9903 -5.9901,4.7922 -5.9903,5.9901 -4.7921,7.1883 -5.9903,5.9903 -4.7922,7.1882 -4.7922,5.9903 -3.5941,7.1882 -4.7921,7.1883 -3.5942,8.3863 -2.3961,7.1882 -3.5941,8.3863 -2.396,7.1883 -2.3962,8.3863 -2.396,7.1883 -1.1981,8.3863 -1.1981,8.3863 -1.1979,8.3863 0,8.3863 0,8.3863 0,8.3864 0,8.3862 1.1979,8.3863 1.1981,8.3863 1.1981,7.1883 2.396,8.3863 2.3962,8.3863 2.396,7.1883 3.5941,8.3863 2.3961,7.1883 3.5942,7.1883 4.7921,7.1882 3.5941,7.1883 4.7922,7.1882 4.7922,7.1883 5.9903,5.9902 4.7921,5.9903 5.9903,5.9902 5.9901,5.9902 5.9903,5.9902 7.1883,4.7922 5.9902,4.7922 7.1883,4.7921 7.1882,4.7922 7.1883,3.5941 7.1882,3.5941 8.3863,3.5943 7.1883,2.396 8.3863,3.5941 7.1883,1.1981 8.3862,2.396 8.3864,1.1981 8.3863,2.3961 8.3863,0 8.3863,1.198 8.3863,0 7.1883,0 8.3863,-1.198 8.3863,0 8.3863,-2.3961 8.3864,-1.1981 8.3863,-2.396 7.1882,-1.1981 8.3863,-3.5941 7.1883,-2.396 8.3863,-3.5943 7.1883,-3.5941 7.1882,-3.5941 7.1882,-4.7922 7.1884,-4.7921 5.9902,-4.7922 7.1882,-4.7922 5.9903,-5.9902 5.9901,-5.9902 5.9903,-5.9902 4.7922,-5.9903 5.9902,-5.9902 4.7922,-7.1883 4.7922,-7.1882 3.5941,-7.1883 4.7922,-7.1882 3.5941,-7.1883 2.3961,-7.1883 3.5941,-8.3863 2.3961,-7.1883 2.3961,-8.3863 2.396,-8.3863 1.1981,-7.1883 1.1981,-8.3863 1.198,-8.3863 0,-8.3862 1.198,-8.3864 z"
     id="path48"
     inkscape:connector-curvature="0"
     style="fill:#0084d1;stroke:none" /><path
     d="m 5367.6446,3753.1803 -1.198,-8.3863 0,-8.3863 -1.198,-8.3863 -1.1981,-8.3863 -1.1981,-8.3863 -2.396,-7.1883 -2.3961,-8.3863 -2.3961,-7.1883 -3.5941,-8.3863 -2.3961,-7.1882 -3.5941,-8.3863 -4.7922,-7.1883 -3.5941,-7.1882 -4.7922,-5.9903 -4.7922,-7.1882 -5.9902,-5.9903 -4.7922,-7.1883 -5.9903,-5.9901 -5.9901,-4.7922 -5.9903,-5.9903 -7.1882,-4.7921 -5.9902,-4.7922 -7.1884,-4.7922 -7.1882,-4.7922 -7.1882,-3.5941 -7.1883,-3.5941 -8.3863,-3.5942 -7.1883,-3.5941 -8.3863,-2.3961 -7.1882,-2.3961 -8.3863,-1.198 -8.3864,-2.3961 -8.3863,-1.1981 -8.3863,0 -8.3863,-1.198 -7.1883,0 -8.3863,0 -8.3863,1.198 -8.3863,0 -8.3863,1.1981 -8.3864,2.3961 -8.3862,1.198 -7.1883,2.3961 -8.3863,2.3961 -7.1883,3.5941 -8.3863,3.5942 -7.1882,3.5941 -7.1883,3.5941 -7.1882,4.7922 -7.1883,4.7922 -5.9902,4.7922 -7.1883,4.7921 -5.9903,5.9903 -5.9901,4.7922 -5.9903,5.9901 -4.7921,7.1883 -5.9903,5.9903 -4.7922,7.1882 -4.7922,5.9903 -3.5941,7.1882 -4.7921,7.1883 -3.5942,8.3863 -2.3961,7.1882 -3.5941,8.3863 -2.396,7.1883 -2.3962,8.3863 -2.396,7.1883 -1.1981,8.3863 -1.1981,8.3863 -1.1979,8.3863 0,8.3863 0,8.3863 0,8.3864 0,8.3862 1.1979,8.3863 1.1981,8.3863 1.1981,7.1883 2.396,8.3863 2.3962,8.3863 2.396,7.1883 3.5941,8.3863 2.3961,7.1883 3.5942,7.1883 4.7921,7.1882 3.5941,7.1883 4.7922,7.1882 4.7922,7.1883 5.9903,5.9902 4.7921,5.9903 5.9903,5.9902 5.9901,5.9902 5.9903,5.9902 7.1883,4.7922 5.9902,4.7922 7.1883,4.7921 7.1882,4.7922 7.1883,3.5941 7.1882,3.5941 8.3863,3.5943 7.1883,2.396 8.3863,3.5941 7.1883,1.1981 8.3862,2.396 8.3864,1.1981 8.3863,2.3961 8.3863,0 8.3863,1.198 8.3863,0 7.1883,0 8.3863,-1.198 8.3863,0 8.3863,-2.3961 8.3864,-1.1981 8.3863,-2.396 7.1882,-1.1981 8.3863,-3.5941 7.1883,-2.396 8.3863,-3.5943 7.1883,-3.5941 7.1882,-3.5941 7.1882,-4.7922 7.1884,-4.7921 5.9902,-4.7922 7.1882,-4.7922 5.9903,-5.9902 5.9901,-5.9902 5.9903,-5.9902 4.7922,-5.9903 5.9902,-5.9902 4.7922,-7.1883 4.7922,-7.1882 3.5941,-7.1883 4.7922,-7.1882 3.5941,-7.1883 2.3961,-7.1883 3.5941,-8.3863 2.3961,-7.1883 2.3961,-8.3863 2.396,-8.3863 1.1981,-7.1883 1.1981,-8.3863 1.198,-8.3863 0,-8.3862 1.198,-8.3864 z"
     id="path50"
     inkscape:connector-curvature="0"
     style="fill:#0084d1;stroke:none;stroke-width:33.81119919;stroke-linejoin:round" /><path
     d="m 7891.9236,3652.5446 0,-8.3863 -1.198,-8.3863 0,-8.3863 -1.1981,-8.3864 -2.396,-8.3863 -1.1981,-7.1882 -2.396,-8.3863 -3.5943,-8.3864 -2.396,-7.1882 -3.5941,-7.1882 -3.5942,-8.3864 -3.5941,-7.1882 -4.7922,-7.1883 -4.7922,-5.9902 -4.7922,-7.1883 -4.7921,-5.9901 -5.9902,-7.1884 -5.9902,-5.9902 -5.9903,-4.7922 -5.9901,-5.9901 -5.9903,-4.7922 -7.1883,-4.7922 -7.1882,-4.7922 -5.9903,-4.7922 -8.3863,-3.5941 -7.1882,-3.5942 -7.1883,-3.5941 -8.3863,-3.5941 -7.1882,-2.3961 -8.3864,-2.3961 -8.3863,-1.1981 -7.1882,-2.396 -8.3864,-1.1981 -8.3863,-1.198 -8.3863,0 -8.3863,0 -8.3863,0 -8.3863,0 -8.3863,1.198 -8.3863,1.1981 -7.1883,2.396 -8.3862,1.1981 -8.3864,2.3961 -7.1883,2.3961 -8.3862,3.5941 -7.1884,3.5941 -7.1882,3.5942 -7.1883,3.5941 -7.1882,4.7922 -7.1883,4.7922 -7.1883,4.7922 -5.9902,4.7922 -5.9902,5.9901 -5.9902,4.7922 -5.9903,5.9902 -5.9902,7.1884 -4.7922,5.9901 -4.7921,7.1883 -4.7922,5.9902 -4.7921,7.1883 -3.5942,7.1882 -3.5942,8.3864 -3.5941,7.1882 -2.3961,7.1882 -3.5941,8.3864 -2.3961,8.3863 -1.198,7.1882 -2.3962,8.3863 -1.1979,8.3864 0,8.3863 -1.1981,8.3863 0,8.3863 0,8.3863 1.1981,8.3864 0,8.3863 1.1979,7.1882 2.3962,8.3863 1.198,8.3864 2.3961,8.3863 3.5941,7.1882 2.3961,8.3863 3.5941,7.1883 3.5942,7.1882 3.5942,7.1883 4.7921,7.1882 4.7922,7.1884 4.7921,7.1882 4.7922,5.9902 5.9902,5.9903 5.9903,5.9901 5.9902,5.9903 5.9902,5.9902 5.9902,4.7922 7.1883,4.7922 7.1883,4.7922 7.1882,4.7921 7.1883,3.5942 7.1882,3.5941 7.1884,3.5941 8.3862,2.3961 7.1883,2.3961 8.3864,2.3961 8.3862,2.396 7.1883,1.1981 8.3863,1.1981 8.3863,1.1979 8.3863,1.1981 8.3863,0 8.3863,0 8.3863,-1.1981 8.3863,-1.1979 8.3864,-1.1981 7.1882,-1.1981 8.3863,-2.396 8.3864,-2.3961 7.1882,-2.3961 8.3863,-2.3961 7.1883,-3.5941 7.1882,-3.5941 8.3863,-3.5942 5.9903,-4.7921 7.1882,-4.7922 7.1883,-4.7922 5.9903,-4.7922 5.9901,-5.9902 5.9903,-5.9903 5.9902,-5.9901 5.9902,-5.9903 4.7921,-5.9902 4.7922,-7.1882 4.7922,-7.1884 4.7922,-7.1882 3.5941,-7.1883 3.5942,-7.1882 3.5941,-7.1883 2.396,-8.3863 3.5943,-7.1882 2.396,-8.3863 1.1981,-8.3864 2.396,-8.3863 1.1981,-7.1882 0,-8.3863 1.198,-8.3864 0,-8.3863 z"
     id="path52"
     inkscape:connector-curvature="0"
     style="fill:#0084d1;stroke:none" /><path
     d="m 7891.9236,3652.5446 0,-8.3863 -1.198,-8.3863 0,-8.3863 -1.1981,-8.3864 -2.396,-8.3863 -1.1981,-7.1882 -2.396,-8.3863 -3.5943,-8.3864 -2.396,-7.1882 -3.5941,-7.1882 -3.5942,-8.3864 -3.5941,-7.1882 -4.7922,-7.1883 -4.7922,-5.9902 -4.7922,-7.1883 -4.7921,-5.9901 -5.9902,-7.1884 -5.9902,-5.9902 -5.9903,-4.7922 -5.9901,-5.9901 -5.9903,-4.7922 -7.1883,-4.7922 -7.1882,-4.7922 -5.9903,-4.7922 -8.3863,-3.5941 -7.1882,-3.5942 -7.1883,-3.5941 -8.3863,-3.5941 -7.1882,-2.3961 -8.3864,-2.3961 -8.3863,-1.1981 -7.1882,-2.396 -8.3864,-1.1981 -8.3863,-1.198 -8.3863,0 -8.3863,0 -8.3863,0 -8.3863,0 -8.3863,1.198 -8.3863,1.1981 -7.1883,2.396 -8.3862,1.1981 -8.3864,2.3961 -7.1883,2.3961 -8.3862,3.5941 -7.1884,3.5941 -7.1882,3.5942 -7.1883,3.5941 -7.1882,4.7922 -7.1883,4.7922 -7.1883,4.7922 -5.9902,4.7922 -5.9902,5.9901 -5.9902,4.7922 -5.9903,5.9902 -5.9902,7.1884 -4.7922,5.9901 -4.7921,7.1883 -4.7922,5.9902 -4.7921,7.1883 -3.5942,7.1882 -3.5942,8.3864 -3.5941,7.1882 -2.3961,7.1882 -3.5941,8.3864 -2.3961,8.3863 -1.198,7.1882 -2.3962,8.3863 -1.1979,8.3864 0,8.3863 -1.1981,8.3863 0,8.3863 0,8.3863 1.1981,8.3864 0,8.3863 1.1979,7.1882 2.3962,8.3863 1.198,8.3864 2.3961,8.3863 3.5941,7.1882 2.3961,8.3863 3.5941,7.1883 3.5942,7.1882 3.5942,7.1883 4.7921,7.1882 4.7922,7.1884 4.7921,7.1882 4.7922,5.9902 5.9902,5.9903 5.9903,5.9901 5.9902,5.9903 5.9902,5.9902 5.9902,4.7922 7.1883,4.7922 7.1883,4.7922 7.1882,4.7921 7.1883,3.5942 7.1882,3.5941 7.1884,3.5941 8.3862,2.3961 7.1883,2.3961 8.3864,2.3961 8.3862,2.396 7.1883,1.1981 8.3863,1.1981 8.3863,1.1979 8.3863,1.1981 8.3863,0 8.3863,0 8.3863,-1.1981 8.3863,-1.1979 8.3864,-1.1981 7.1882,-1.1981 8.3863,-2.396 8.3864,-2.3961 7.1882,-2.3961 8.3863,-2.3961 7.1883,-3.5941 7.1882,-3.5941 8.3863,-3.5942 5.9903,-4.7921 7.1882,-4.7922 7.1883,-4.7922 5.9903,-4.7922 5.9901,-5.9902 5.9903,-5.9903 5.9902,-5.9901 5.9902,-5.9903 4.7921,-5.9902 4.7922,-7.1882 4.7922,-7.1884 4.7922,-7.1882 3.5941,-7.1883 3.5942,-7.1882 3.5941,-7.1883 2.396,-8.3863 3.5943,-7.1882 2.396,-8.3863 1.1981,-8.3864 2.396,-8.3863 1.1981,-7.1882 0,-8.3863 1.198,-8.3864 0,-8.3863 z"
     id="path54"
     inkscape:connector-curvature="0"
     style="fill:#0084d1;stroke:none;stroke-width:33.81119919;stroke-linejoin:round" /><path
     d="m 10418.598,3530.3442 -1.197,-8.3864 0,-7.1883 -1.198,-8.3862 -1.199,-8.3863 -1.197,-8.3864 -2.397,-8.3863 -2.396,-7.1882 -2.395,-8.3863 -3.594,-7.1883 -2.397,-8.3863 -3.594,-7.1884 -4.792,-7.1882 -3.594,-7.1882 -4.792,-7.1883 -4.793,-5.9903 -5.99,-7.1882 -4.792,-5.9902 -5.99,-5.9902 -5.991,-5.9902 -5.99,-4.7922 -7.188,-5.9903 -5.99,-4.7921 -7.189,-4.7922 -7.188,-3.5941 -7.188,-4.7922 -7.189,-3.5941 -8.385,-2.3962 -7.188,-3.5941 -8.387,-2.396 -7.188,-2.3962 -8.387,-2.396 -8.386,-1.1981 -8.386,-1.198 -8.387,-1.1981 -8.386,0 -7.188,-1.198 -8.387,1.198 -8.386,0 -8.386,1.1981 -8.387,1.198 -8.385,1.1981 -8.387,2.396 -7.188,2.3962 -8.387,2.396 -7.188,3.5941 -8.387,2.3962 -7.188,3.5941 -7.188,4.7922 -7.188,3.5941 -7.188,4.7922 -5.99,4.7921 -7.189,5.9903 -5.99,4.7922 -5.99,5.9902 -5.99,5.9902 -4.793,5.9902 -5.989,7.1882 -4.793,5.9903 -4.792,7.1883 -3.594,7.1882 -4.793,7.1882 -3.594,7.1884 -2.396,8.3863 -3.594,7.1883 -2.396,8.3863 -2.396,7.1882 -2.396,8.3863 -1.198,8.3864 -1.198,8.3863 -1.198,8.3862 0,7.1883 0,8.3864 0,8.3862 0,8.3863 1.198,8.3863 1.198,8.3863 1.198,8.3864 2.396,8.3863 2.396,7.1882 2.396,8.3863 3.594,7.1883 2.396,8.3863 3.594,7.1882 4.793,7.1884 3.594,7.1882 4.792,7.1883 4.793,5.9901 5.989,7.1884 4.793,5.9902 5.99,5.9902 5.99,5.9902 5.99,4.7922 7.189,5.9902 5.99,4.7922 7.188,4.7922 7.188,3.5941 7.188,3.5941 7.188,4.7922 8.387,2.3961 7.188,3.5942 8.387,2.396 7.188,2.3961 8.387,2.3961 8.385,1.198 8.387,1.1981 8.386,1.198 8.386,0 8.387,0 7.188,0 8.386,0 8.387,-1.198 8.386,-1.1981 8.386,-1.198 8.387,-2.3961 7.188,-2.3961 8.387,-2.396 7.188,-3.5942 8.385,-2.3961 7.189,-4.7922 7.188,-3.5941 7.188,-3.5941 7.189,-4.7922 5.99,-4.7922 7.188,-5.9902 5.99,-4.7922 5.991,-5.9902 5.99,-5.9902 4.792,-5.9902 5.99,-7.1884 4.793,-5.9901 4.792,-7.1883 3.594,-7.1882 4.792,-7.1884 3.594,-7.1882 2.397,-8.3863 3.594,-7.1883 2.395,-8.3863 2.396,-7.1882 2.397,-8.3863 1.197,-8.3864 1.199,-8.3863 1.198,-8.3863 0,-8.3863 1.197,-8.3862 z"
     id="path56"
     inkscape:connector-curvature="0"
     style="fill:#0084d1;stroke:none" /><path
     d="m 10418.598,3530.3442 -1.197,-8.3864 0,-7.1883 -1.198,-8.3862 -1.199,-8.3863 -1.197,-8.3864 -2.397,-8.3863 -2.396,-7.1882 -2.395,-8.3863 -3.594,-7.1883 -2.397,-8.3863 -3.594,-7.1884 -4.792,-7.1882 -3.594,-7.1882 -4.792,-7.1883 -4.793,-5.9903 -5.99,-7.1882 -4.792,-5.9902 -5.99,-5.9902 -5.991,-5.9902 -5.99,-4.7922 -7.188,-5.9903 -5.99,-4.7921 -7.189,-4.7922 -7.188,-3.5941 -7.188,-4.7922 -7.189,-3.5941 -8.385,-2.3962 -7.188,-3.5941 -8.387,-2.396 -7.188,-2.3962 -8.387,-2.396 -8.386,-1.1981 -8.386,-1.198 -8.387,-1.1981 -8.386,0 -7.188,-1.198 -8.387,1.198 -8.386,0 -8.386,1.1981 -8.387,1.198 -8.385,1.1981 -8.387,2.396 -7.188,2.3962 -8.387,2.396 -7.188,3.5941 -8.387,2.3962 -7.188,3.5941 -7.188,4.7922 -7.188,3.5941 -7.188,4.7922 -5.99,4.7921 -7.189,5.9903 -5.99,4.7922 -5.99,5.9902 -5.99,5.9902 -4.793,5.9902 -5.989,7.1882 -4.793,5.9903 -4.792,7.1883 -3.594,7.1882 -4.793,7.1882 -3.594,7.1884 -2.396,8.3863 -3.594,7.1883 -2.396,8.3863 -2.396,7.1882 -2.396,8.3863 -1.198,8.3864 -1.198,8.3863 -1.198,8.3862 0,7.1883 0,8.3864 0,8.3862 0,8.3863 1.198,8.3863 1.198,8.3863 1.198,8.3864 2.396,8.3863 2.396,7.1882 2.396,8.3863 3.594,7.1883 2.396,8.3863 3.594,7.1882 4.793,7.1884 3.594,7.1882 4.792,7.1883 4.793,5.9901 5.989,7.1884 4.793,5.9902 5.99,5.9902 5.99,5.9902 5.99,4.7922 7.189,5.9902 5.99,4.7922 7.188,4.7922 7.188,3.5941 7.188,3.5941 7.188,4.7922 8.387,2.3961 7.188,3.5942 8.387,2.396 7.188,2.3961 8.387,2.3961 8.385,1.198 8.387,1.1981 8.386,1.198 8.386,0 8.387,0 7.188,0 8.386,0 8.387,-1.198 8.386,-1.1981 8.386,-1.198 8.387,-2.3961 7.188,-2.3961 8.387,-2.396 7.188,-3.5942 8.385,-2.3961 7.189,-4.7922 7.188,-3.5941 7.188,-3.5941 7.189,-4.7922 5.99,-4.7922 7.188,-5.9902 5.99,-4.7922 5.991,-5.9902 5.99,-5.9902 4.792,-5.9902 5.99,-7.1884 4.793,-5.9901 4.792,-7.1883 3.594,-7.1882 4.792,-7.1884 3.594,-7.1882 2.397,-8.3863 3.594,-7.1883 2.395,-8.3863 2.396,-7.1882 2.397,-8.3863 1.197,-8.3864 1.199,-8.3863 1.198,-8.3863 0,-8.3863 1.197,-8.3862 z"
     id="path58"
     inkscape:connector-curvature="0"
     style="fill:#0084d1;stroke:none;stroke-width:33.81119919;stroke-linejoin:round" /><path
     d="m 12944.076,2798.3391 0,-8.3863 -1.198,-8.3863 0,-8.3863 -1.198,-7.1883 -2.396,-8.3863 -1.199,-8.3863 -2.395,-8.3863 -3.594,-7.1883 -2.397,-8.3863 -3.594,-7.1882 -3.594,-7.1883 -3.594,-7.1882 -4.792,-7.1883 -4.792,-7.1883 -4.793,-7.1882 -4.791,-5.9902 -5.991,-5.9903 -5.99,-5.9902 -5.991,-5.9902 -5.99,-5.9902 -5.99,-4.7922 -7.188,-4.7922 -7.188,-4.7922 -5.991,-4.7922 -8.386,-3.5941 -7.189,-3.5941 -7.188,-3.5942 -8.386,-2.396 -7.188,-3.5941 -8.386,-1.1981 -8.387,-2.396 -7.188,-1.1981 -8.387,-2.3962 -8.385,0 -8.387,-1.1979 -8.387,0 -8.385,0 -8.387,1.1979 -8.386,0 -8.387,2.3962 -7.188,1.1981 -8.386,2.396 -8.386,1.1981 -7.188,3.5941 -8.387,2.396 -7.188,3.5942 -7.189,3.5941 -7.188,3.5941 -7.188,4.7922 -7.188,4.7922 -7.188,4.7922 -5.99,4.7922 -5.991,5.9902 -5.99,5.9902 -5.991,5.9902 -5.99,5.9903 -4.792,5.9902 -4.792,7.1882 -4.792,7.1883 -4.793,7.1883 -3.594,7.1882 -3.594,7.1883 -3.594,7.1882 -2.396,8.3863 -3.594,7.1883 -2.396,8.3863 -1.198,8.3863 -2.397,8.3863 -1.197,7.1883 0,8.3863 -1.198,8.3863 0,8.3863 0,8.3864 1.198,8.3863 0,8.3863 1.197,8.3863 2.397,8.3863 1.198,7.1883 2.396,8.3863 3.594,7.1883 2.396,8.3863 3.594,7.1882 3.594,8.3863 3.594,7.1883 4.793,7.1882 4.792,5.9903 4.792,7.1882 4.792,5.9902 5.99,7.1884 5.991,5.9901 5.99,4.7922 5.991,5.9902 5.99,4.7922 7.188,4.7922 7.188,4.7922 7.188,4.7922 7.188,3.5941 7.189,3.5941 7.188,3.5941 8.387,3.5942 7.188,2.396 8.386,2.3962 8.386,1.1979 7.188,2.3962 8.387,1.1981 8.386,1.1979 8.387,0 8.385,0 8.387,0 8.387,0 8.385,-1.1979 8.387,-1.1981 7.188,-2.3962 8.387,-1.1979 8.386,-2.3962 7.188,-2.396 8.386,-3.5942 7.188,-3.5941 7.189,-3.5941 8.386,-3.5941 5.991,-4.7922 7.188,-4.7922 7.188,-4.7922 5.99,-4.7922 5.99,-5.9902 5.991,-4.7922 5.99,-5.9901 5.991,-7.1884 4.791,-5.9902 4.793,-7.1882 4.792,-5.9903 4.792,-7.1882 3.594,-7.1883 3.594,-8.3863 3.594,-7.1882 2.397,-8.3863 3.594,-7.1883 2.395,-8.3863 1.199,-7.1883 2.396,-8.3863 1.198,-8.3863 0,-8.3863 1.198,-8.3863 0,-8.3864 z"
     id="path60"
     inkscape:connector-curvature="0"
     style="fill:#0084d1;stroke:none" /><path
     d="m 12944.076,2798.3391 0,-8.3863 -1.198,-8.3863 0,-8.3863 -1.198,-7.1883 -2.396,-8.3863 -1.199,-8.3863 -2.395,-8.3863 -3.594,-7.1883 -2.397,-8.3863 -3.594,-7.1882 -3.594,-7.1883 -3.594,-7.1882 -4.792,-7.1883 -4.792,-7.1883 -4.793,-7.1882 -4.791,-5.9902 -5.991,-5.9903 -5.99,-5.9902 -5.991,-5.9902 -5.99,-5.9902 -5.99,-4.7922 -7.188,-4.7922 -7.188,-4.7922 -5.991,-4.7922 -8.386,-3.5941 -7.189,-3.5941 -7.188,-3.5942 -8.386,-2.396 -7.188,-3.5941 -8.386,-1.1981 -8.387,-2.396 -7.188,-1.1981 -8.387,-2.3962 -8.385,0 -8.387,-1.1979 -8.387,0 -8.385,0 -8.387,1.1979 -8.386,0 -8.387,2.3962 -7.188,1.1981 -8.386,2.396 -8.386,1.1981 -7.188,3.5941 -8.387,2.396 -7.188,3.5942 -7.189,3.5941 -7.188,3.5941 -7.188,4.7922 -7.188,4.7922 -7.188,4.7922 -5.99,4.7922 -5.991,5.9902 -5.99,5.9902 -5.991,5.9902 -5.99,5.9903 -4.792,5.9902 -4.792,7.1882 -4.792,7.1883 -4.793,7.1883 -3.594,7.1882 -3.594,7.1883 -3.594,7.1882 -2.396,8.3863 -3.594,7.1883 -2.396,8.3863 -1.198,8.3863 -2.397,8.3863 -1.197,7.1883 0,8.3863 -1.198,8.3863 0,8.3863 0,8.3864 1.198,8.3863 0,8.3863 1.197,8.3863 2.397,8.3863 1.198,7.1883 2.396,8.3863 3.594,7.1883 2.396,8.3863 3.594,7.1882 3.594,8.3863 3.594,7.1883 4.793,7.1882 4.792,5.9903 4.792,7.1882 4.792,5.9902 5.99,7.1884 5.991,5.9901 5.99,4.7922 5.991,5.9902 5.99,4.7922 7.188,4.7922 7.188,4.7922 7.188,4.7922 7.188,3.5941 7.189,3.5941 7.188,3.5941 8.387,3.5942 7.188,2.396 8.386,2.3962 8.386,1.1979 7.188,2.3962 8.387,1.1981 8.386,1.1979 8.387,0 8.385,0 8.387,0 8.387,0 8.385,-1.1979 8.387,-1.1981 7.188,-2.3962 8.387,-1.1979 8.386,-2.3962 7.188,-2.396 8.386,-3.5942 7.188,-3.5941 7.189,-3.5941 8.386,-3.5941 5.991,-4.7922 7.188,-4.7922 7.188,-4.7922 5.99,-4.7922 5.99,-5.9902 5.991,-4.7922 5.99,-5.9901 5.991,-7.1884 4.791,-5.9902 4.793,-7.1882 4.792,-5.9903 4.792,-7.1882 3.594,-7.1883 3.594,-8.3863 3.594,-7.1882 2.397,-8.3863 3.594,-7.1883 2.395,-8.3863 1.199,-7.1883 2.396,-8.3863 1.198,-8.3863 0,-8.3863 1.198,-8.3863 0,-8.3864 z"
     id="path62"
     inkscape:connector-curvature="0"
     style="fill:#0084d1;stroke:none;stroke-width:33.81119919;stroke-linejoin:round" /><path
     d="m 15470.751,1860.2706 -1.198,-8.3863 0,-8.3863 -1.198,-8.3863 -1.199,-8.3863 -1.197,-8.3863 -2.397,-7.1883 -2.395,-8.3863 -2.396,-8.3863 -3.594,-7.1882 -2.397,-7.1884 -3.594,-8.3862 -4.793,-7.1884 -3.594,-7.1882 -4.791,-5.9902 -4.793,-7.1883 -5.989,-5.9902 -4.793,-7.1882 -5.99,-5.9903 -5.991,-5.9902 -5.99,-4.7922 -7.188,-4.7922 -5.991,-5.9901 -7.188,-3.5942 -7.188,-4.7922 -7.188,-3.5941 -7.188,-3.5941 -8.386,-3.5942 -7.188,-3.5941 -8.387,-2.3961 -7.188,-2.396 -8.387,-2.3962 -8.386,-1.1981 -8.386,-1.1979 -8.386,-1.1981 -8.387,0 -7.188,0 -8.387,0 -8.385,0 -8.387,1.1981 -8.387,1.1979 -8.385,1.1981 -8.387,2.3962 -7.188,2.396 -8.387,2.3961 -7.188,3.5941 -8.386,3.5942 -7.189,3.5941 -7.188,3.5941 -7.188,4.7922 -7.188,3.5942 -5.99,5.9901 -7.188,4.7922 -5.991,4.7922 -5.99,5.9902 -5.99,5.9903 -4.792,7.1882 -5.991,5.9902 -4.792,7.1883 -4.792,5.9902 -3.594,7.1882 -4.793,7.1884 -3.594,8.3862 -2.396,7.1884 -3.594,7.1882 -2.395,8.3863 -2.397,8.3863 -2.396,7.1883 -1.198,8.3863 -1.198,8.3863 -1.198,8.3863 0,8.3863 0,8.3863 0,8.3863 0,8.3863 1.198,7.1883 1.198,8.3863 1.198,8.3863 2.396,8.3863 2.397,8.3863 2.395,7.1883 3.594,8.3863 2.396,7.1883 3.594,7.1882 4.793,7.1883 3.594,7.1883 4.792,7.1882 4.792,7.1883 5.991,5.9902 4.792,5.9902 5.99,5.9903 5.99,5.9902 5.991,5.9902 7.188,4.7921 5.99,4.7922 7.188,4.7922 7.188,3.5941 7.188,4.7922 7.189,3.5942 8.386,3.5941 7.188,2.3961 8.387,2.3961 7.188,2.396 8.387,2.3962 8.385,1.198 8.387,1.198 8.387,1.1981 8.385,1.1981 8.387,0 7.188,0 8.387,-1.1981 8.386,-1.1981 8.386,-1.198 8.386,-1.198 8.387,-2.3962 7.188,-2.396 8.387,-2.3961 7.188,-2.3961 8.386,-3.5941 7.188,-3.5942 7.188,-4.7922 7.188,-3.5941 7.188,-4.7922 5.991,-4.7922 7.188,-4.7921 5.99,-5.9902 5.991,-5.9902 5.99,-5.9903 4.793,-5.9902 5.989,-5.9902 4.793,-7.1883 4.791,-7.1882 3.594,-7.1883 4.793,-7.1883 3.594,-7.1882 2.397,-7.1883 3.594,-8.3863 2.396,-7.1883 2.395,-8.3863 2.397,-8.3863 1.197,-8.3863 1.199,-8.3863 1.198,-7.1883 0,-8.3863 1.198,-8.3863 z"
     id="path64"
     inkscape:connector-curvature="0"
     style="fill:#0084d1;stroke:none" /><path
     d="m 15470.751,1860.2706 -1.198,-8.3863 0,-8.3863 -1.198,-8.3863 -1.199,-8.3863 -1.197,-8.3863 -2.397,-7.1883 -2.395,-8.3863 -2.396,-8.3863 -3.594,-7.1882 -2.397,-7.1884 -3.594,-8.3862 -4.793,-7.1884 -3.594,-7.1882 -4.791,-5.9902 -4.793,-7.1883 -5.989,-5.9902 -4.793,-7.1882 -5.99,-5.9903 -5.991,-5.9902 -5.99,-4.7922 -7.188,-4.7922 -5.991,-5.9901 -7.188,-3.5942 -7.188,-4.7922 -7.188,-3.5941 -7.188,-3.5941 -8.386,-3.5942 -7.188,-3.5941 -8.387,-2.3961 -7.188,-2.396 -8.387,-2.3962 -8.386,-1.1981 -8.386,-1.1979 -8.386,-1.1981 -8.387,0 -7.188,0 -8.387,0 -8.385,0 -8.387,1.1981 -8.387,1.1979 -8.385,1.1981 -8.387,2.3962 -7.188,2.396 -8.387,2.3961 -7.188,3.5941 -8.386,3.5942 -7.189,3.5941 -7.188,3.5941 -7.188,4.7922 -7.188,3.5942 -5.99,5.9901 -7.188,4.7922 -5.991,4.7922 -5.99,5.9902 -5.99,5.9903 -4.792,7.1882 -5.991,5.9902 -4.792,7.1883 -4.792,5.9902 -3.594,7.1882 -4.793,7.1884 -3.594,8.3862 -2.396,7.1884 -3.594,7.1882 -2.395,8.3863 -2.397,8.3863 -2.396,7.1883 -1.198,8.3863 -1.198,8.3863 -1.198,8.3863 0,8.3863 0,8.3863 0,8.3863 0,8.3863 1.198,7.1883 1.198,8.3863 1.198,8.3863 2.396,8.3863 2.397,8.3863 2.395,7.1883 3.594,8.3863 2.396,7.1883 3.594,7.1882 4.793,7.1883 3.594,7.1883 4.792,7.1882 4.792,7.1883 5.991,5.9902 4.792,5.9902 5.99,5.9903 5.99,5.9902 5.991,5.9902 7.188,4.7921 5.99,4.7922 7.188,4.7922 7.188,3.5941 7.188,4.7922 7.189,3.5942 8.386,3.5941 7.188,2.3961 8.387,2.3961 7.188,2.396 8.387,2.3962 8.385,1.198 8.387,1.198 8.387,1.1981 8.385,1.1981 8.387,0 7.188,0 8.387,-1.1981 8.386,-1.1981 8.386,-1.198 8.386,-1.198 8.387,-2.3962 7.188,-2.396 8.387,-2.3961 7.188,-2.3961 8.386,-3.5941 7.188,-3.5942 7.188,-4.7922 7.188,-3.5941 7.188,-4.7922 5.991,-4.7922 7.188,-4.7921 5.99,-5.9902 5.991,-5.9902 5.99,-5.9903 4.793,-5.9902 5.989,-5.9902 4.793,-7.1883 4.791,-7.1882 3.594,-7.1883 4.793,-7.1883 3.594,-7.1882 2.397,-7.1883 3.594,-8.3863 2.396,-7.1883 2.395,-8.3863 2.397,-8.3863 1.197,-8.3863 1.199,-8.3863 1.198,-7.1883 0,-8.3863 1.198,-8.3863 z"
     id="path66"
     inkscape:connector-curvature="0"
     style="fill:#0084d1;stroke:none;stroke-width:33.81119919;stroke-linejoin:round" /><text
     class="TextShape"
     id="text68"
     x="-2208.7864"
     y="-298.60526"
     style="font-size:14.37652969px"><tspan
       class="TextParagraph"
       font-size="353px"
       font-weight="400"
       id="tspan70"
       style="font-weight:400;font-size:422.90957642px;font-family:'Liberation Sans', sans-serif"><tspan
         class="TextPosition"
         x="-319.47073"
         y="9218.6582"
         id="tspan72" /><tspan
         class="TextPosition"
         x="-319.47073"
         y="9218.6582"
         id="tspan74"><tspan
           id="tspan76"
           style="fill:#000000;stroke:none">2010</tspan></tspan></tspan></text>
<text
     class="TextShape"
     id="text78"
     x="-2208.7864"
     y="-298.60526"
     style="font-size:14.37652969px"><tspan
       class="TextParagraph"
       font-size="353px"
       font-weight="400"
       id="tspan80"
       style="font-weight:400;font-size:422.90957642px;font-family:'Liberation Sans', sans-serif"><tspan
         class="TextPosition"
         x="2206.0063"
         y="9218.6582"
         id="tspan82" /><tspan
         class="TextPosition"
         x="2206.0063"
         y="9218.6582"
         id="tspan84"><tspan
           id="tspan86"
           style="fill:#000000;stroke:none">2011</tspan></tspan></tspan></text>
<text
     class="TextShape"
     id="text88"
     x="-2208.7864"
     y="-298.60526"
     style="font-size:14.37652969px"><tspan
       class="TextParagraph"
       font-size="353px"
       font-weight="400"
       id="tspan90"
       style="font-weight:400;font-size:422.90957642px;font-family:'Liberation Sans', sans-serif"><tspan
         class="TextPosition"
         x="4732.6816"
         y="9218.6582"
         id="tspan92" /><tspan
         class="TextPosition"
         x="4732.6816"
         y="9218.6582"
         id="tspan94"><tspan
           id="tspan96"
           style="fill:#000000;stroke:none">2012</tspan></tspan></tspan></text>
<text
     class="TextShape"
     id="text98"
     x="-2208.7864"
     y="-298.60526"
     style="font-size:14.37652969px"><tspan
       class="TextParagraph"
       font-size="353px"
       font-weight="400"
       id="tspan100"
       style="font-weight:400;font-size:422.90957642px;font-family:'Liberation Sans', sans-serif"><tspan
         class="TextPosition"
         x="7258.1582"
         y="9218.6582"
         id="tspan102" /><tspan
         class="TextPosition"
         x="7258.1582"
         y="9218.6582"
         id="tspan104"><tspan
           id="tspan106"
           style="fill:#000000;stroke:none">2013</tspan></tspan></tspan></text>
<text
     class="TextShape"
     id="text108"
     x="-2208.7864"
     y="-298.60526"
     style="font-size:14.37652969px"><tspan
       class="TextParagraph"
       font-size="353px"
       font-weight="400"
       id="tspan110"
       style="font-weight:400;font-size:422.90957642px;font-family:'Liberation Sans', sans-serif"><tspan
         class="TextPosition"
         x="9784.834"
         y="9218.6582"
         id="tspan112" /><tspan
         class="TextPosition"
         x="9784.834"
         y="9218.6582"
         id="tspan114"><tspan
           id="tspan116"
           style="fill:#000000;stroke:none">2014</tspan></tspan></tspan></text>
<text
     class="TextShape"
     id="text118"
     x="-2208.7864"
     y="-298.60526"
     style="font-size:14.37652969px"><tspan
       class="TextParagraph"
       font-size="353px"
       font-weight="400"
       id="tspan120"
       style="font-weight:400;font-size:422.90957642px;font-family:'Liberation Sans', sans-serif"><tspan
         class="TextPosition"
         x="12310.311"
         y="9218.6582"
         id="tspan122" /><tspan
         class="TextPosition"
         x="12310.311"
         y="9218.6582"
         id="tspan124"><tspan
           id="tspan126"
           style="fill:#000000;stroke:none">2020</tspan></tspan></tspan></text>
<text
     class="TextShape"
     id="text128"
     x="-2208.7864"
     y="-298.60526"
     style="font-size:14.37652969px"><tspan
       class="TextParagraph"
       font-size="353px"
       font-weight="400"
       id="tspan130"
       style="font-weight:400;font-size:422.90957642px;font-family:'Liberation Sans', sans-serif"><tspan
         class="TextPosition"
         x="14836.985"
         y="9218.6582"
         id="tspan132" /><tspan
         class="TextPosition"
         x="14836.985"
         y="9218.6582"
         id="tspan134"><tspan
           id="tspan136"
           style="fill:#000000;stroke:none">2030</tspan></tspan></tspan></text>
<text
     class="TextShape"
     id="text138"
     x="-2208.7864"
     y="-298.60526"
     style="font-size:14.37652969px"><tspan
       class="TextParagraph"
       font-size="353px"
       font-weight="400"
       id="tspan140"
       style="font-weight:400;font-size:422.90957642px;font-family:'Liberation Sans', sans-serif"><tspan
         class="TextPosition"
         x="-216.439"
         y="8862.8389"
         id="tspan142" /><tspan
         class="TextPosition"
         x="-216.439"
         y="8862.8389"
         id="tspan144"><tspan
           id="tspan146"
           style="fill:#000000;stroke:none">0</tspan></tspan></tspan></text>
<text
     class="TextShape"
     id="text148"
     x="-2208.7864"
     y="-298.60526"
     style="font-size:14.37652969px"><tspan
       class="TextParagraph"
       font-size="353px"
       font-weight="400"
       id="tspan150"
       style="font-weight:400;font-size:422.90957642px;font-family:'Liberation Sans', sans-serif"><tspan
         class="TextPosition"
         x="-1104.1897"
         y="7435.9678"
         id="tspan152" /><tspan
         class="TextPosition"
         x="-1104.1897"
         y="7435.9678"
         id="tspan154"><tspan
           id="tspan156"
           style="fill:#000000;stroke:none">50000</tspan></tspan></tspan></text>
<text
     class="TextShape"
     id="text158"
     x="-2208.7864"
     y="-298.60526"
     style="font-size:14.37652969px"><tspan
       class="TextParagraph"
       font-size="353px"
       font-weight="400"
       id="tspan160"
       style="font-weight:400;font-size:422.90957642px;font-family:'Liberation Sans', sans-serif"><tspan
         class="TextPosition"
         x="-1325.8279"
         y="6009.0972"
         id="tspan162" /><tspan
         class="TextPosition"
         x="-1325.8279"
         y="6009.0972"
         id="tspan164"><tspan
           id="tspan166"
           style="fill:#000000;stroke:none">100000</tspan></tspan></tspan></text>
<text
     class="TextShape"
     id="text168"
     x="-2208.7864"
     y="-298.60526"
     style="font-size:14.37652969px"><tspan
       class="TextParagraph"
       font-size="353px"
       font-weight="400"
       id="tspan170"
       style="font-weight:400;font-size:422.90957642px;font-family:'Liberation Sans', sans-serif"><tspan
         class="TextPosition"
         x="-1325.8279"
         y="4582.2271"
         id="tspan172" /><tspan
         class="TextPosition"
         x="-1325.8279"
         y="4582.2271"
         id="tspan174"><tspan
           id="tspan176"
           style="fill:#000000;stroke:none">150000</tspan></tspan></tspan></text>
<text
     class="TextShape"
     id="text178"
     x="-2208.7864"
     y="-298.60526"
     style="font-size:14.37652969px"><tspan
       class="TextParagraph"
       font-size="353px"
       font-weight="400"
       id="tspan180"
       style="font-weight:400;font-size:422.90957642px;font-family:'Liberation Sans', sans-serif"><tspan
         class="TextPosition"
         x="-1325.8279"
         y="3156.5542"
         id="tspan182" /><tspan
         class="TextPosition"
         x="-1325.8279"
         y="3156.5542"
         id="tspan184"><tspan
           id="tspan186"
           style="fill:#000000;stroke:none">200000</tspan></tspan></tspan></text>
<text
     class="TextShape"
     id="text188"
     x="-2208.7864"
     y="-298.60526"
     style="font-size:14.37652969px"><tspan
       class="TextParagraph"
       font-size="353px"
       font-weight="400"
       id="tspan190"
       style="font-weight:400;font-size:422.90957642px;font-family:'Liberation Sans', sans-serif"><tspan
         class="TextPosition"
         x="-1325.8279"
         y="1729.6836"
         id="tspan192" /><tspan
         class="TextPosition"
         x="-1325.8279"
         y="1729.6836"
         id="tspan194"><tspan
           id="tspan196"
           style="fill:#000000;stroke:none">250000</tspan></tspan></tspan></text>
<text
     class="TextShape"
     id="text198"
     x="-2208.7864"
     y="-298.60526"
     style="font-size:14.37652969px"><tspan
       class="TextParagraph"
       font-size="353px"
       font-weight="400"
       id="tspan200"
       style="font-weight:400;font-size:422.90957642px;font-family:'Liberation Sans', sans-serif"><tspan
         class="TextPosition"
         x="-1325.8279"
         y="302.81351"
         id="tspan202" /><tspan
         class="TextPosition"
         x="-1325.8279"
         y="302.81351"
         id="tspan204"><tspan
           id="tspan206"
           style="fill:#000000;stroke:none">300000</tspan></tspan></tspan></text>
<text
     class="TextShape"
     id="text208"
     x="-1931.309"
     y="-67.374008"
     style="font-size:14.37652969px"><tspan
       class="TextParagraph"
       font-size="353px"
       font-weight="700"
       id="tspan210"
       style="font-weight:700;font-size:422.90957642px;font-family:Calibri, sans-serif"><tspan
         class="TextPosition"
         x="14068.57"
         y="8515.415"
         id="tspan212" /><tspan
         class="TextPosition"
         x="14068.57"
         y="8515.415"
         id="tspan214"><tspan
           id="tspan216"
           style="fill:#000000;stroke:none">Year</tspan></tspan></tspan></text>
<text
     class="TextShape"
     transform="matrix(0,-1,1,0,0,0)"
     id="text218"
     x="-6374.0322"
     y="-2060.3635"
     style="font-size:14.37652969px"><tspan
       class="TextParagraph"
       font-size="353px"
       font-weight="700"
       id="tspan220"
       style="font-weight:700;font-size:422.90957642px;font-family:Calibri, sans-serif"><tspan
         class="TextPosition"
         x="-2905.6946"
         y="866.45844"
         id="tspan222" /><tspan
         class="TextPosition"
         x="-2905.6946"
         y="866.45844"
         id="tspan224"><tspan
           id="tspan226"
           style="fill:#000000;stroke:none">Inhabitants</tspan></tspan></tspan></text>
<path
     d="m 12098.897,6359.1102 0,-8.3863 -1.198,-8.3863 0,-8.3863 -1.198,-7.1883 -2.396,-8.3863 -1.199,-8.3863 -2.395,-8.3863 -3.594,-7.1883 -2.397,-8.3863 -3.594,-7.1882 -3.594,-7.1883 -3.594,-7.1882 -4.792,-7.1883 -4.792,-7.1883 -4.793,-7.1882 -4.791,-5.9902 -5.991,-5.9903 -5.99,-5.9902 -5.991,-5.9902 -5.99,-5.9902 -5.99,-4.7922 -7.188,-4.7922 -7.188,-4.7922 -5.991,-4.7922 -8.386,-3.5941 -7.189,-3.5941 -7.188,-3.5942 -8.386,-2.396 -7.188,-3.5941 -8.386,-1.1981 -8.387,-2.396 -7.188,-1.1981 -8.387,-2.3962 -8.385,0 -8.387,-1.1979 -8.387,0 -8.385,0 -8.387,1.1979 -8.386,0 -8.387,2.3962 -7.188,1.1981 -8.386,2.396 -8.386,1.1981 -7.188,3.5941 -8.387,2.396 -7.188,3.5942 -7.189,3.5941 -7.188,3.5941 -7.188,4.7922 -7.188,4.7922 -7.188,4.7922 -5.99,4.7922 -5.991,5.9902 -5.99,5.9902 -5.991,5.9902 -5.99,5.9903 -4.792,5.9902 -4.792,7.1882 -4.792,7.1883 -4.793,7.1883 -3.594,7.1882 -3.594,7.1883 -3.594,7.1882 -2.396,8.3863 -3.594,7.1883 -2.396,8.3863 -1.198,8.3863 -2.397,8.3863 -1.197,7.1883 0,8.3863 -1.198,8.3863 0,8.3863 0,8.3864 1.198,8.3863 0,8.3863 1.197,8.3863 2.397,8.3863 1.198,7.1883 2.396,8.3863 3.594,7.1883 2.396,8.3863 3.594,7.1882 3.594,8.3863 3.594,7.1884 4.793,7.1882 4.792,5.9902 4.792,7.1882 4.792,5.9902 5.99,7.1884 5.991,5.9901 5.99,4.7922 5.991,5.9903 5.99,4.7921 7.188,4.7922 7.188,4.7923 7.188,4.7921 7.188,3.5941 7.189,3.5941 7.188,3.5941 8.387,3.5943 7.188,2.396 8.386,2.3961 8.386,1.198 7.188,2.3964 8.387,1.198 8.386,1.198 8.387,0 8.385,0 8.387,0 8.387,0 8.385,-1.198 8.387,-1.198 7.188,-2.3964 8.387,-1.198 8.386,-2.3961 7.188,-2.396 8.386,-3.5943 7.188,-3.5941 7.189,-3.5941 8.386,-3.5941 5.991,-4.7921 7.188,-4.7923 7.188,-4.7922 5.99,-4.7921 5.99,-5.9903 5.991,-4.7922 5.99,-5.9901 5.991,-7.1884 4.791,-5.9902 4.793,-7.1882 4.792,-5.9902 4.792,-7.1882 3.594,-7.1884 3.594,-8.3863 3.594,-7.1882 2.397,-8.3863 3.594,-7.1883 2.395,-8.3863 1.199,-7.1883 2.396,-8.3863 1.198,-8.3863 0,-8.3863 1.198,-8.3863 0,-8.3864 z"
     id="path62-6"
     inkscape:connector-curvature="0"
     style="fill:#0084d1;stroke:none;stroke-width:33.81119919;stroke-linejoin:round" /><text
     class="TextShape"
     id="text208-0"
     x="-3572.5464"
     y="-2107.0071"
     style="font-size:14.37652969px"><tspan
       class="TextParagraph"
       font-size="353px"
       font-weight="700"
       id="tspan210-1"
       style="font-weight:700;font-size:422.90957642px;font-family:Calibri, sans-serif"><tspan
         class="TextPosition"
         x="12427.331"
         y="6475.7822"
         id="tspan214-5"
         style="font-style:normal;font-variant:normal;font-weight:normal;font-stretch:normal;font-family:Calibri, sans-serif;-inkscape-font-specification:'Calibri, sans-serif';fill:#000000;stroke:none">Total 55 plus</tspan></tspan></text>
</svg>