<?xml version="1.0" encoding="UTF-8" standalone="no"?>
<!-- Created with Inkscape (http://www.inkscape.org/) -->

<svg
   xmlns:dc="http://purl.org/dc/elements/1.1/"
   xmlns:cc="http://creativecommons.org/ns#"
   xmlns:rdf="http://www.w3.org/1999/02/22-rdf-syntax-ns#"
   xmlns:svg="http://www.w3.org/2000/svg"
   xmlns="http://www.w3.org/2000/svg"
   xmlns:sodipodi="http://sodipodi.sourceforge.net/DTD/sodipodi-0.dtd"
   xmlns:inkscape="http://www.inkscape.org/namespaces/inkscape"
   id="svg2"
   version="1.1"
   inkscape:version="0.91 r"
   xml:space="preserve"
   width="320.14749"
   height="196.875"
   viewBox="0 0 320.14749 196.875"
   sodipodi:docname="M_location_calc.svg"><metadata
     id="metadata8"><rdf:RDF><cc:Work
         rdf:about=""><dc:format>image/svg+xml</dc:format><dc:type
           rdf:resource="http://purl.org/dc/dcmitype/StillImage" /><dc:title></dc:title></cc:Work></rdf:RDF></metadata><defs
     id="defs6"><clipPath
       clipPathUnits="userSpaceOnUse"
       id="clipPath18"><path
         d="m 0,157.5 256.118,0 0,-157.5 L 0,0 0,157.5 Z"
         id="path20"
         inkscape:connector-curvature="0" /></clipPath><clipPath
       clipPathUnits="userSpaceOnUse"
       id="clipPath94"><path
         d="m 0,157.5 256.118,0 0,-157.5 L 0,0 0,157.5 Z"
         id="path96"
         inkscape:connector-curvature="0" /></clipPath><clipPath
       clipPathUnits="userSpaceOnUse"
       id="clipPath184"><path
         d="m 0,157.5 256.118,0 0,-157.5 L 0,0 0,157.5 Z"
         id="path186"
         inkscape:connector-curvature="0" /></clipPath><clipPath
       clipPathUnits="userSpaceOnUse"
       id="clipPath210"><path
         d="m 0,157.5 256.118,0 0,-157.5 L 0,0 0,157.5 Z"
         id="path212"
         inkscape:connector-curvature="0" /></clipPath></defs><sodipodi:namedview
     pagecolor="#ffffff"
     bordercolor="#666666"
     borderopacity="1"
     objecttolerance="10"
     gridtolerance="10"
     guidetolerance="10"
     inkscape:pageopacity="0"
     inkscape:pageshadow="2"
     inkscape:window-width="1366"
     inkscape:window-height="716"
     id="namedview4"
     showgrid="false"
     showguides="false"
     inkscape:zoom="4.1605823"
     inkscape:cx="78.929579"
     inkscape:cy="125.16789"
     inkscape:window-x="0"
     inkscape:window-y="0"
     inkscape:window-maximized="1"
     inkscape:current-layer="g10" /><g
     id="g10"
     inkscape:groupmode="layer"
     inkscape:label="M_location_calc"
     transform="matrix(1.25,0,0,-1.25,0,196.875)"><path
       d="m 0.5,0.5 255.118,0 0,156.499 -255.118,0 L 0.5,0.5 Z"
       style="fill:#c8c9cb;fill-opacity:1;fill-rule:nonzero;stroke:none"
       id="path12"
       inkscape:connector-curvature="0" /><g
       id="g14"><g
         id="g16"
         clip-path="url(#clipPath18)"><g
           id="g22"
           transform="translate(255.6177,3)"><path
             d="m 0,0 0,-2.5 -2.5,0"
             style="fill:none;stroke:#5e5f60;stroke-width:1;stroke-linecap:butt;stroke-linejoin:miter;stroke-miterlimit:10;stroke-dasharray:none;stroke-opacity:1"
             id="path24"
             inkscape:connector-curvature="0" /></g><g
           id="g26"
           transform="translate(248.2134,0.5)"><path
             d="M 0,0 -242.761,0"
             style="fill:none;stroke:#5e5f60;stroke-width:1;stroke-linecap:butt;stroke-linejoin:miter;stroke-miterlimit:10;stroke-dasharray:4.904, 4.904;stroke-dashoffset:0;stroke-opacity:1"
             id="path28"
             inkscape:connector-curvature="0" /></g><g
           id="g30"
           transform="translate(3,0.5)"><path
             d="m 0,0 -2.5,0 0,2.5"
             style="fill:none;stroke:#5e5f60;stroke-width:1;stroke-linecap:butt;stroke-linejoin:miter;stroke-miterlimit:10;stroke-dasharray:none;stroke-opacity:1"
             id="path32"
             inkscape:connector-curvature="0" /></g><g
           id="g34"
           transform="translate(0.5,7.8872)"><path
             d="M 0,0 0,144.169"
             style="fill:none;stroke:#5e5f60;stroke-width:1;stroke-linecap:butt;stroke-linejoin:miter;stroke-miterlimit:10;stroke-dasharray:4.887, 4.887;stroke-dashoffset:0;stroke-opacity:1"
             id="path36"
             inkscape:connector-curvature="0" /></g><g
           id="g38"
           transform="translate(0.5,154.5)"><path
             d="m 0,0 0,2.5 2.5,0"
             style="fill:none;stroke:#5e5f60;stroke-width:1;stroke-linecap:butt;stroke-linejoin:miter;stroke-miterlimit:10;stroke-dasharray:none;stroke-opacity:1"
             id="path40"
             inkscape:connector-curvature="0" /></g><g
           id="g42"
           transform="translate(7.9043,157)"><path
             d="M 0,0 242.761,0"
             style="fill:none;stroke:#5e5f60;stroke-width:1;stroke-linecap:butt;stroke-linejoin:miter;stroke-miterlimit:10;stroke-dasharray:4.904, 4.904;stroke-dashoffset:0;stroke-opacity:1"
             id="path44"
             inkscape:connector-curvature="0" /></g><g
           id="g46"
           transform="translate(253.1177,157)"><path
             d="m 0,0 2.5,0 0,-2.5"
             style="fill:none;stroke:#5e5f60;stroke-width:1;stroke-linecap:butt;stroke-linejoin:miter;stroke-miterlimit:10;stroke-dasharray:none;stroke-opacity:1"
             id="path48"
             inkscape:connector-curvature="0" /></g><g
           id="g50"
           transform="translate(255.6177,149.6128)"><path
             d="M 0,0 0,-144.169"
             style="fill:none;stroke:#5e5f60;stroke-width:1;stroke-linecap:butt;stroke-linejoin:miter;stroke-miterlimit:10;stroke-dasharray:4.887, 4.887;stroke-dashoffset:0;stroke-opacity:1"
             id="path52"
             inkscape:connector-curvature="0" /></g></g></g><g
       id="g54"
       transform="translate(225.1909,35.25)"><path
         d="M 0,0 -195,0 0,73 0,0 Z"
         style="fill:#f1f2f2;fill-opacity:1;fill-rule:nonzero;stroke:none"
         id="path56"
         inkscape:connector-curvature="0" /></g><g
       id="g58"
       transform="translate(225.1909,37.75)"><path
         d="m 0,0 0,-2.5 -2.5,0"
         style="fill:none;stroke:#4d4c4e;stroke-width:1;stroke-linecap:butt;stroke-linejoin:miter;stroke-miterlimit:10;stroke-dasharray:none;stroke-opacity:1"
         id="path60"
         inkscape:connector-curvature="0" /></g><g
       id="g62"
       transform="translate(217.8188,35.25)"><path
         d="M 0,0 -182.692,0"
         style="fill:none;stroke:#4d4c4e;stroke-width:1;stroke-linecap:butt;stroke-linejoin:miter;stroke-miterlimit:10;stroke-dasharray:4.872, 4.872;stroke-dashoffset:0;stroke-opacity:1"
         id="path64"
         inkscape:connector-curvature="0" /></g><g
       id="g66"
       transform="translate(32.6909,35.25)"><path
         d="m 0,0 -2.5,0 2.341,0.876"
         style="fill:none;stroke:#4d4c4e;stroke-width:1;stroke-linecap:butt;stroke-linejoin:miter;stroke-miterlimit:10;stroke-dasharray:none;stroke-opacity:1"
         id="path68"
         inkscape:connector-curvature="0" /></g><g
       id="g70"
       transform="translate(37.1743,37.8643)"><path
         d="M 0,0 183.354,68.641"
         style="fill:none;stroke:#4d4c4e;stroke-width:1;stroke-linecap:butt;stroke-linejoin:miter;stroke-miterlimit:10;stroke-dasharray:4.956, 4.956;stroke-dashoffset:0;stroke-opacity:1"
         id="path72"
         inkscape:connector-curvature="0" /></g><g
       id="g74"
       transform="translate(222.8491,107.3735)"><path
         d="m 0,0 2.342,0.876 0,-2.5"
         style="fill:none;stroke:#4d4c4e;stroke-width:1;stroke-linecap:butt;stroke-linejoin:miter;stroke-miterlimit:10;stroke-dasharray:none;stroke-opacity:1"
         id="path76"
         inkscape:connector-curvature="0" /></g><g
       id="g78"
       transform="translate(225.1909,100.519)"><path
         d="M 0,0 0,-60.154"
         style="fill:none;stroke:#4d4c4e;stroke-width:1;stroke-linecap:butt;stroke-linejoin:miter;stroke-miterlimit:10;stroke-dasharray:5.231, 5.231;stroke-dashoffset:0;stroke-opacity:1"
         id="path80"
         inkscape:connector-curvature="0" /></g><g
       id="g82"
       transform="translate(30.1909,35.25)"><path
         d="M 0,0 -20.25,-26.75"
         style="fill:none;stroke:#4d4c4e;stroke-width:2;stroke-linecap:butt;stroke-linejoin:miter;stroke-miterlimit:10;stroke-dasharray:none;stroke-opacity:1"
         id="path84"
         inkscape:connector-curvature="0" /></g><g
       id="g86"
       transform="translate(225.1909,108.25)"><path
         d="M 0,0 10.588,19.214"
         style="fill:none;stroke:#4d4c4e;stroke-width:2;stroke-linecap:butt;stroke-linejoin:miter;stroke-miterlimit:10;stroke-dasharray:none;stroke-opacity:1"
         id="path88"
         inkscape:connector-curvature="0" /></g><g
       id="g90"><g
         id="g92"
         clip-path="url(#clipPath94)"><g
           id="g98"
           transform="translate(238.6909,132.75)"><path
             d="m 0,0 c -0.447,-2.996 -0.573,-6.949 0.04,-9.781 l -3.335,3.802 -4.994,0.788 C -5.567,-4.197 -2.293,-1.979 0,0"
             style="fill:#4d4c4e;fill-opacity:1;fill-rule:nonzero;stroke:none"
             id="path100"
             inkscape:connector-curvature="0" /></g><g
           id="g102"
           transform="translate(30.1909,35.25)"><path
             d="M 0,0 195,73"
             style="fill:none;stroke:#4d4c4e;stroke-width:2;stroke-linecap:butt;stroke-linejoin:miter;stroke-miterlimit:10;stroke-dasharray:none;stroke-opacity:1"
             id="path104"
             inkscape:connector-curvature="0" /></g><g
           id="g106"
           transform="translate(173.1909,88.75)"><path
             d="M 0,0 2.5,0"
             style="fill:none;stroke:#bec0c2;stroke-width:1;stroke-linecap:butt;stroke-linejoin:miter;stroke-miterlimit:10;stroke-dasharray:none;stroke-opacity:1"
             id="path108"
             inkscape:connector-curvature="0" /></g><g
           id="g110"
           transform="translate(180.9136,88.75)"><path
             d="M 0,0 39.166,0"
             style="fill:none;stroke:#bec0c2;stroke-width:1;stroke-linecap:butt;stroke-linejoin:miter;stroke-miterlimit:10;stroke-dasharray:5.222, 5.222;stroke-dashoffset:0;stroke-opacity:1"
             id="path112"
             inkscape:connector-curvature="0" /></g><g
           id="g114"
           transform="translate(222.6909,88.75)"><path
             d="M 0,0 2.5,0"
             style="fill:none;stroke:#bec0c2;stroke-width:1;stroke-linecap:butt;stroke-linejoin:miter;stroke-miterlimit:10;stroke-dasharray:none;stroke-opacity:1"
             id="path116"
             inkscape:connector-curvature="0" /></g><g
           id="g118"
           transform="translate(173.1909,88.75)"><path
             d="M 0,0 0,-2.5"
             style="fill:none;stroke:#bec0c2;stroke-width:1;stroke-linecap:butt;stroke-linejoin:miter;stroke-miterlimit:10;stroke-dasharray:none;stroke-opacity:1"
             id="path120"
             inkscape:connector-curvature="0" /></g><g
           id="g122"
           transform="translate(173.1909,80.8613)"><path
             d="M 0,0 0,-40.417"
             style="fill:none;stroke:#bec0c2;stroke-width:1;stroke-linecap:butt;stroke-linejoin:miter;stroke-miterlimit:10;stroke-dasharray:5.389, 5.389;stroke-dashoffset:0;stroke-opacity:1"
             id="path124"
             inkscape:connector-curvature="0" /></g><g
           id="g126"
           transform="translate(173.1909,37.75)"><path
             d="M 0,0 0,-2.5"
             style="fill:none;stroke:#bec0c2;stroke-width:1;stroke-linecap:butt;stroke-linejoin:miter;stroke-miterlimit:10;stroke-dasharray:none;stroke-opacity:1"
             id="path128"
             inkscape:connector-curvature="0" /></g><g
           id="g130"
           transform="translate(36.9741,37.7876)"><path
             d="M 0,0 129.434,48.425"
             style="fill:none;stroke:#47b754;stroke-width:2;stroke-linecap:butt;stroke-linejoin:miter;stroke-miterlimit:10;stroke-dasharray:none;stroke-opacity:1"
             id="path132"
             inkscape:connector-curvature="0" /></g><g
           id="g134"
           transform="translate(30.1909,35.25)"><path
             d="M 0,0 C 3.635,0.01 8.351,-0.529 11.606,-1.751 L 7.673,2.871 7.607,8.938 C 5.953,5.879 2.749,2.377 0,0"
             style="fill:#47b754;fill-opacity:1;fill-rule:nonzero;stroke:none"
             id="path136"
             inkscape:connector-curvature="0" /></g><g
           id="g138"
           transform="translate(173.1909,88.75)"><path
             d="m 0,0 c -2.749,-2.378 -5.953,-5.88 -7.606,-8.939 l -0.067,6.068 -3.932,4.621 C -8.351,0.528 -3.635,-0.011 0,0"
             style="fill:#47b754;fill-opacity:1;fill-rule:nonzero;stroke:none"
             id="path140"
             inkscape:connector-curvature="0" /></g><path
           d="m 214.691,45.75 10.5,0 0,-10.5 -10.5,0 0,10.5 z"
           style="fill:none;stroke:#4d4c4e;stroke-width:1;stroke-linecap:butt;stroke-linejoin:miter;stroke-miterlimit:10;stroke-dasharray:5;stroke-dashoffset:0;stroke-opacity:1"
           id="path142"
           inkscape:connector-curvature="0" /><g
           id="g144"
           transform="translate(26.1909,35.25)"><path
             d="M 0,0 C 0,2.209 1.791,4 4,4 6.209,4 8,2.209 8,0 8,-2.209 6.209,-4 4,-4 1.791,-4 0,-2.209 0,0"
             style="fill:#606163;fill-opacity:1;fill-rule:nonzero;stroke:none"
             id="path146"
             inkscape:connector-curvature="0" /></g><g
           id="g148"
           transform="translate(221.1909,108.25)"><path
             d="M 0,0 C 0,2.209 1.791,4 4,4 6.209,4 8,2.209 8,0 8,-2.209 6.209,-4 4,-4 1.791,-4 0,-2.209 0,0"
             style="fill:#606163;fill-opacity:1;fill-rule:nonzero;stroke:none"
             id="path150"
             inkscape:connector-curvature="0" /></g><g
           id="g152"
           transform="translate(169.1909,88.75)"><path
             d="M 0,0 C 0,2.209 1.791,4 4,4 6.209,4 8,2.209 8,0 8,-2.209 6.209,-4 4,-4 1.791,-4 0,-2.209 0,0"
             style="fill:#ffffff;fill-opacity:1;fill-rule:nonzero;stroke:none"
             id="path154"
             inkscape:connector-curvature="0" /></g><g
           id="g156"
           transform="translate(169.1909,88.75)"><path
             d="M 0,0 C 0,2.209 1.791,4 4,4 6.209,4 8,2.209 8,0 8,-2.209 6.209,-4 4,-4 1.791,-4 0,-2.209 0,0 Z"
             style="fill:none;stroke:#606163;stroke-width:2;stroke-linecap:butt;stroke-linejoin:miter;stroke-miterlimit:10;stroke-dasharray:none;stroke-opacity:1"
             id="path158"
             inkscape:connector-curvature="0" /></g></g></g><text
       transform="matrix(1,0,0,-1,4.1909,45.75)"
       style="font-variant:normal;font-weight:600;font-stretch:normal;font-size:10px;font-family:'Avenir LT Std';-inkscape-font-specification:'Avenir LT Std Semi-Bold';writing-mode:lr-tb;fill:#4d4c4e;fill-opacity:1;fill-rule:nonzero;stroke:none;font-style:normal;"
       id="text160"><tspan
         x="0 6.6884999 12.2745 17.240999 19.614 24.9375"
         y="0"
         sodipodi:role="line"
         id="tspan162">GPS 1.</tspan><tspan
         x="189 195.68851 201.27451 206.241 208.614 213.9375"
         y="-71.998497"
         sodipodi:role="line"
         id="tspan164">GPS 2.</tspan><tspan
         x="139.50301 145.866 150.255 154.644 157.017 162.4371 168.08611 170.6691 176.20575"
         y="-51.995998"
         sodipodi:role="line"
         id="tspan166">Acc Point</tspan></text>
<text
       transform="matrix(1,0,0,-1,30.1909,19.25)"
       style="font-variant:normal;font-weight:normal;font-stretch:normal;font-size:8px;font-family:Calibri;-inkscape-font-specification:Calibri;writing-mode:lr-tb;fill:#4d4c4e;fill-opacity:1;fill-rule:nonzero;stroke:none;"
       id="text168"><tspan
         x="0 3.8970001 8.3789997"
         y="0"
         sodipodi:role="line"
         id="tspan170">x_1</tspan><tspan
         x="201.75301 205.83 210.312"
         y="-15.003"
         sodipodi:role="line"
         id="tspan172">y_1</tspan><tspan
         x="198.99899 203.076 207.558 211.869 215.67599"
         y="-68.499001"
         sodipodi:role="line"
         id="tspan174">y_acc</tspan><tspan
         x="201.75301 205.83 210.312"
         y="-88.001999"
         sodipodi:role="line"
         id="tspan176">y_2</tspan><tspan
         x="187.506 191.403 195.88499 135.504 139.401 143.883 148.194 152.00101"
         y="-3.5009999"
         sodipodi:role="line"
         id="tspan178">x_2x_acc</tspan></text>
<g
       id="g180"><g
         id="g182"
         clip-path="url(#clipPath184)"><path
           d="m 86.184,81.688 -78.25,0 0,67.75 78.25,0 0,-67.75 z"
           style="fill:#f1f2f2;fill-opacity:1;fill-rule:nonzero;stroke:#4d4c4e;stroke-width:1;stroke-linecap:butt;stroke-linejoin:miter;stroke-miterlimit:10;stroke-dasharray:none;stroke-opacity:1"
           id="path188"
           inkscape:connector-curvature="0" /></g></g><text
       transform="matrix(1,0,0,-1,13.063,138.9434)"
       style="font-variant:normal;font-weight:600;font-stretch:normal;font-size:10px;font-family:'Avenir LT Std';-inkscape-font-specification:'Avenir LT Std Semi-Bold';writing-mode:lr-tb;fill:#373535;fill-opacity:1;fill-rule:nonzero;stroke:none;font-style:normal;"
       id="text190"><tspan
         x="0 5.6290498 11.26755 16.89135 24.71385 30.35235"
         y="0"
         sodipodi:role="line"
         id="tspan192">Known:</tspan></text>
<text
       transform="matrix(1,0,0,-1,13.063,126.3434)"
       style="font-variant:normal;font-weight:600;font-stretch:normal;font-size:10px;font-family:'Avenir LT Std';-inkscape-font-specification:'Avenir LT Std Semi-Bold';writing-mode:lr-tb;fill:#373535;fill-opacity:1;fill-rule:nonzero;stroke:none;font-style:normal;"
       id="text194"
       sodipodi:linespacing="113%"><tspan
         x="0 5.1975002 7.7804999 16.316999 21.60795 23.980949 29.61945 32.20245 38.325001 43.606499 47.221649 52.503151 58.141651 62.530651"
         y="0"
         sodipodi:role="line"
         id="tspan196">Time di<tspan
   style="font-size:9px;line-height:113%;-inkscape-font-specification:'Abyssinica SIL';font-family:'Abyssinica SIL';font-weight:normal;font-style:normal;font-stretch:normal;font-variant:normal"
   id="tspan8330">ﬀ</tspan>erence</tspan></text>
<text
       transform="matrix(1,0,0,-1,13.063,113.7434)"
       style="font-variant:normal;font-weight:600;font-stretch:normal;font-size:10px;font-family:'Avenir LT Std';-inkscape-font-specification:'Avenir LT Std Semi-Bold';writing-mode:lr-tb;fill:#373535;fill-opacity:1;fill-rule:nonzero;stroke:none;font-style:normal;"
       id="text198"><tspan
         x="0 4.9664998 10.59765 15.87915 21.16065 26.79915"
         y="0"
         sodipodi:role="line"
         id="tspan200">Speed </tspan><tspan
         x="0 5.1869998 10.8255 16.464001 18.837 23.026501 28.67025 31.043249"
         y="12.6"
         sodipodi:role="line"
         id="tspan202">and so :</tspan><tspan
         x="0 6.6149998 9.198 13.26885 16.806299 21.993299 27.6318 32.020802"
         y="25.200001"
         sodipodi:role="line"
         id="tspan204">Distance</tspan></text>
<g
       id="g206"><g
         id="g208"
         clip-path="url(#clipPath210)"><g
           id="g214"
           transform="translate(96.1831,111)"><path
             d="M 0,0 C 13.339,0 17.366,-8.665 17.928,-30.465"
             style="fill:none;stroke:#4d4c4e;stroke-width:1;stroke-linecap:butt;stroke-linejoin:miter;stroke-miterlimit:10;stroke-dasharray:none;stroke-opacity:1"
             id="path216"
             inkscape:connector-curvature="0" /></g><g
           id="g218"
           transform="translate(114.1831,74.5)"><path
             d="m 0,0 c -1.109,2.819 -2.976,6.306 -4.922,8.453 l 4.788,-1.627 4.72,1.813 C 2.726,6.418 0.997,2.86 0,0"
             style="fill:#4d4c4e;fill-opacity:1;fill-rule:nonzero;stroke:none"
             id="path220"
             inkscape:connector-curvature="0" /></g></g></g></g></svg>