<?xml version="1.0" encoding="UTF-8"?>
<!DOCTYPE svg PUBLIC "-//W3C//DTD SVG 1.1//EN" "http://www.w3.org/Graphics/SVG/1.1/DTD/svg11.dtd">
<svg width="200mm" height="93mm" viewBox="0 0 20000 9300" version="1.1" baseProfile="tiny" xmlns="http://www.w3.org/2000/svg" stroke-width="28.222" stroke-linejoin="round" xml:space="preserve">
 <path fill="rgb(255,255,255)" stroke="none" d="M 9999,9297 L 0,9297 0,-2 19997,-2 19997,9297 9999,9297 Z"/>
 <path fill="rgb(255,255,255)" stroke="none" d="M 9959,8620 L 655,8620 655,382 19263,382 19263,8620 9959,8620 Z"/>
 <path fill="none" stroke="rgb(135,135,135)" stroke-width="26" stroke-linejoin="round" d="M 19263,8619 L 655,8619"/>
 <path fill="none" stroke="rgb(135,135,135)" stroke-width="26" stroke-linejoin="round" d="M 19263,7703 L 655,7703"/>
 <path fill="none" stroke="rgb(135,135,135)" stroke-width="26" stroke-linejoin="round" d="M 19263,6788 L 655,6788"/>
 <path fill="none" stroke="rgb(135,135,135)" stroke-width="26" stroke-linejoin="round" d="M 19263,5872 L 655,5872"/>
 <path fill="none" stroke="rgb(135,135,135)" stroke-width="26" stroke-linejoin="round" d="M 19263,4957 L 655,4957"/>
 <path fill="none" stroke="rgb(135,135,135)" stroke-width="26" stroke-linejoin="round" d="M 19263,4042 L 655,4042"/>
 <path fill="none" stroke="rgb(135,135,135)" stroke-width="26" stroke-linejoin="round" d="M 19263,3127 L 655,3127"/>
 <path fill="none" stroke="rgb(135,135,135)" stroke-width="26" stroke-linejoin="round" d="M 19263,2211 L 655,2211"/>
 <path fill="none" stroke="rgb(135,135,135)" stroke-width="26" stroke-linejoin="round" d="M 19263,1296 L 655,1296"/>
 <path fill="none" stroke="rgb(135,135,135)" stroke-width="26" stroke-linejoin="round" d="M 19263,381 L 655,381"/>
 <path fill="none" stroke="rgb(135,135,135)" stroke-width="26" stroke-linejoin="round" d="M 655,8769 L 655,8619"/>
 <path fill="none" stroke="rgb(135,135,135)" stroke-width="26" stroke-linejoin="round" d="M 3756,8769 L 3756,8619"/>
 <path fill="none" stroke="rgb(135,135,135)" stroke-width="26" stroke-linejoin="round" d="M 6858,8769 L 6858,8619"/>
 <path fill="none" stroke="rgb(135,135,135)" stroke-width="26" stroke-linejoin="round" d="M 9959,8769 L 9959,8619"/>
 <path fill="none" stroke="rgb(135,135,135)" stroke-width="26" stroke-linejoin="round" d="M 13060,8769 L 13060,8619"/>
 <path fill="none" stroke="rgb(135,135,135)" stroke-width="26" stroke-linejoin="round" d="M 16161,8769 L 16161,8619"/>
 <path fill="none" stroke="rgb(135,135,135)" stroke-width="26" stroke-linejoin="round" d="M 19263,8769 L 19263,8619"/>
 <path fill="none" stroke="rgb(135,135,135)" stroke-width="26" stroke-linejoin="round" d="M 655,8619 L 19263,8619"/>
 <path fill="none" stroke="rgb(135,135,135)" stroke-width="26" stroke-linejoin="round" d="M 505,8619 L 655,8619"/>
 <path fill="none" stroke="rgb(135,135,135)" stroke-width="26" stroke-linejoin="round" d="M 505,7703 L 655,7703"/>
 <path fill="none" stroke="rgb(135,135,135)" stroke-width="26" stroke-linejoin="round" d="M 505,6788 L 655,6788"/>
 <path fill="none" stroke="rgb(135,135,135)" stroke-width="26" stroke-linejoin="round" d="M 505,5872 L 655,5872"/>
 <path fill="none" stroke="rgb(135,135,135)" stroke-width="26" stroke-linejoin="round" d="M 505,4957 L 655,4957"/>
 <path fill="none" stroke="rgb(135,135,135)" stroke-width="26" stroke-linejoin="round" d="M 505,4042 L 655,4042"/>
 <path fill="none" stroke="rgb(135,135,135)" stroke-width="26" stroke-linejoin="round" d="M 505,3127 L 655,3127"/>
 <path fill="none" stroke="rgb(135,135,135)" stroke-width="26" stroke-linejoin="round" d="M 505,2211 L 655,2211"/>
 <path fill="none" stroke="rgb(135,135,135)" stroke-width="26" stroke-linejoin="round" d="M 505,1296 L 655,1296"/>
 <path fill="none" stroke="rgb(135,135,135)" stroke-width="26" stroke-linejoin="round" d="M 505,381 L 655,381"/>
 <path fill="none" stroke="rgb(135,135,135)" stroke-width="26" stroke-linejoin="round" d="M 655,8619 L 655,381"/>
 <path fill="rgb(0,0,0)" stroke="none" d="M 2117,7615 L 2117,7791 2293,7791 2293,7615 2117,7615 Z"/>
 <path fill="none" stroke="rgb(0,0,0)" stroke-linejoin="round" d="M 2117,7615 L 2117,7791 2293,7791 2293,7615 2117,7615 Z"/>
 <path fill="rgb(0,0,0)" stroke="none" d="M 2625,8531 L 2625,8707 2801,8707 2801,8531 2625,8531 Z"/>
 <path fill="none" stroke="rgb(0,0,0)" stroke-linejoin="round" d="M 2625,8531 L 2625,8707 2801,8707 2801,8531 2625,8531 Z"/>
 <path fill="rgb(0,0,0)" stroke="none" d="M 8150,7340 L 8150,7516 8326,7516 8326,7340 8150,7340 Z"/>
 <path fill="none" stroke="rgb(0,0,0)" stroke-linejoin="round" d="M 8150,7340 L 8150,7516 8326,7516 8326,7340 8150,7340 Z"/>
 <path fill="rgb(0,0,0)" stroke="none" d="M 7813,8531 L 7813,8707 7989,8707 7989,8531 7813,8531 Z"/>
 <path fill="none" stroke="rgb(0,0,0)" stroke-linejoin="round" d="M 7813,8531 L 7813,8707 7989,8707 7989,8531 7813,8531 Z"/>
 <path fill="rgb(0,0,0)" stroke="none" d="M 6832,7432 L 6832,7608 7008,7608 7008,7432 6832,7432 Z"/>
 <path fill="none" stroke="rgb(0,0,0)" stroke-linejoin="round" d="M 6832,7432 L 6832,7608 7008,7608 7008,7432 6832,7432 Z"/>
 <path fill="rgb(0,0,0)" stroke="none" d="M 8479,7066 L 8479,7242 8655,7242 8655,7066 8479,7066 Z"/>
 <path fill="none" stroke="rgb(0,0,0)" stroke-linejoin="round" d="M 8479,7066 L 8479,7242 8655,7242 8655,7066 8479,7066 Z"/>
 <path fill="rgb(0,0,0)" stroke="none" d="M 16083,8531 L 16083,8707 16259,8707 16259,8531 16083,8531 Z"/>
 <path fill="none" stroke="rgb(0,0,0)" stroke-linejoin="round" d="M 16083,8531 L 16083,8707 16259,8707 16259,8531 16083,8531 Z"/>
 <path fill="rgb(0,0,0)" stroke="none" d="M 13862,1208 L 13862,1384 14038,1384 14038,1208 13862,1208 Z"/>
 <path fill="none" stroke="rgb(0,0,0)" stroke-linejoin="round" d="M 13862,1208 L 13862,1384 14038,1384 14038,1208 13862,1208 Z"/>
 <path fill="rgb(0,0,0)" stroke="none" d="M 16656,3039 L 16656,3215 16832,3215 16832,3039 16656,3039 Z"/>
 <path fill="none" stroke="rgb(0,0,0)" stroke-linejoin="round" d="M 16656,3039 L 16656,3215 16832,3215 16832,3039 16656,3039 Z"/>
 <path fill="none" stroke="rgb(0,0,0)" stroke-width="26" stroke-linejoin="round" d="M 3017,8619 L 16744,2388"/>
 <text class="TextShape"><tspan class="TextParagraph" font-family="Liberation Sans" font-size="353px" font-weight="400"><tspan class="TextPosition" x="417" y="9187"/><tspan class="TextPosition" x="417" y="9187"><tspan fill="rgb(0,0,0)" stroke="none">0.0</tspan></tspan></tspan></text>
 <text class="TextShape"><tspan class="TextParagraph" font-family="Liberation Sans" font-size="353px" font-weight="400"><tspan class="TextPosition" x="3518" y="9187"/><tspan class="TextPosition" x="3518" y="9187"><tspan fill="rgb(0,0,0)" stroke="none">2.0</tspan></tspan></tspan></text>
 <text class="TextShape"><tspan class="TextParagraph" font-family="Liberation Sans" font-size="353px" font-weight="400"><tspan class="TextPosition" x="6620" y="9187"/><tspan class="TextPosition" x="6620" y="9187"><tspan fill="rgb(0,0,0)" stroke="none">4.0</tspan></tspan></tspan></text>
 <text class="TextShape"><tspan class="TextParagraph" font-family="Liberation Sans" font-size="353px" font-weight="400"><tspan class="TextPosition" x="9721" y="9187"/><tspan class="TextPosition" x="9721" y="9187"><tspan fill="rgb(0,0,0)" stroke="none">6.0</tspan></tspan></tspan></text>
 <text class="TextShape"><tspan class="TextParagraph" font-family="Liberation Sans" font-size="353px" font-weight="400"><tspan class="TextPosition" x="12823" y="9187"/><tspan class="TextPosition" x="12823" y="9187"><tspan fill="rgb(0,0,0)" stroke="none">8.0</tspan></tspan></tspan></text>
 <text class="TextShape"><tspan class="TextParagraph" font-family="Liberation Sans" font-size="353px" font-weight="400"><tspan class="TextPosition" x="15831" y="9187"/><tspan class="TextPosition" x="15831" y="9187"><tspan fill="rgb(0,0,0)" stroke="none">10.0</tspan></tspan></tspan></text>
 <text class="TextShape"><tspan class="TextParagraph" font-family="Liberation Sans" font-size="353px" font-weight="400"><tspan class="TextPosition" x="18933" y="9187"/><tspan class="TextPosition" x="18933" y="9187"><tspan fill="rgb(0,0,0)" stroke="none">12.0</tspan></tspan></tspan></text>
 <text class="TextShape"><tspan class="TextParagraph" font-family="Liberation Sans" font-size="353px" font-weight="400"><tspan class="TextPosition" x="220" y="8740"/><tspan class="TextPosition" x="220" y="8740"><tspan fill="rgb(0,0,0)" stroke="none">0</tspan></tspan></tspan></text>
 <text class="TextShape"><tspan class="TextParagraph" font-family="Liberation Sans" font-size="353px" font-weight="400"><tspan class="TextPosition" x="220" y="7824"/><tspan class="TextPosition" x="220" y="7824"><tspan fill="rgb(0,0,0)" stroke="none">1</tspan></tspan></tspan></text>
 <text class="TextShape"><tspan class="TextParagraph" font-family="Liberation Sans" font-size="353px" font-weight="400"><tspan class="TextPosition" x="220" y="6909"/><tspan class="TextPosition" x="220" y="6909"><tspan fill="rgb(0,0,0)" stroke="none">2</tspan></tspan></tspan></text>
 <text class="TextShape"><tspan class="TextParagraph" font-family="Liberation Sans" font-size="353px" font-weight="400"><tspan class="TextPosition" x="220" y="5993"/><tspan class="TextPosition" x="220" y="5993"><tspan fill="rgb(0,0,0)" stroke="none">3</tspan></tspan></tspan></text>
 <text class="TextShape"><tspan class="TextParagraph" font-family="Liberation Sans" font-size="353px" font-weight="400"><tspan class="TextPosition" x="220" y="5078"/><tspan class="TextPosition" x="220" y="5078"><tspan fill="rgb(0,0,0)" stroke="none">4</tspan></tspan></tspan></text>
 <text class="TextShape"><tspan class="TextParagraph" font-family="Liberation Sans" font-size="353px" font-weight="400"><tspan class="TextPosition" x="220" y="4162"/><tspan class="TextPosition" x="220" y="4162"><tspan fill="rgb(0,0,0)" stroke="none">5</tspan></tspan></tspan></text>
 <text class="TextShape"><tspan class="TextParagraph" font-family="Liberation Sans" font-size="353px" font-weight="400"><tspan class="TextPosition" x="220" y="3247"/><tspan class="TextPosition" x="220" y="3247"><tspan fill="rgb(0,0,0)" stroke="none">6</tspan></tspan></tspan></text>
 <text class="TextShape"><tspan class="TextParagraph" font-family="Liberation Sans" font-size="353px" font-weight="400"><tspan class="TextPosition" x="220" y="2331"/><tspan class="TextPosition" x="220" y="2331"><tspan fill="rgb(0,0,0)" stroke="none">7</tspan></tspan></tspan></text>
 <text class="TextShape"><tspan class="TextParagraph" font-family="Liberation Sans" font-size="353px" font-weight="400"><tspan class="TextPosition" x="220" y="1416"/><tspan class="TextPosition" x="220" y="1416"><tspan fill="rgb(0,0,0)" stroke="none">8</tspan></tspan></tspan></text>
 <text class="TextShape"><tspan class="TextParagraph" font-family="Liberation Sans" font-size="353px" font-weight="400"><tspan class="TextPosition" x="220" y="501"/><tspan class="TextPosition" x="220" y="501"><tspan fill="rgb(0,0,0)" stroke="none">9</tspan></tspan></tspan></text>
 <text class="TextShape"><tspan class="TextParagraph" font-family="Liberation Sans" font-size="494px" font-weight="400"><tspan class="TextPosition" x="12265" y="5616"/><tspan class="TextPosition" x="12265" y="5616"><tspan fill="rgb(0,0,0)" stroke="none">R² = 0.72</tspan></tspan></tspan></text>
 <text class="TextShape"><tspan class="TextParagraph" font-family="Calibri" font-size="353px" font-weight="400"><tspan class="TextPosition" x="16238" y="8416"/><tspan class="TextPosition" x="16238" y="8416"><tspan fill="rgb(0,0,0)" stroke="none">Factors measured</tspan></tspan></tspan></text>
 <text class="TextShape" transform="translate(1338,5731) rotate(-90) translate(-1338,-5731)"><tspan class="TextParagraph" font-family="Calibri" font-size="353px" font-weight="400"><tspan class="TextPosition" x="1338" y="5731"/><tspan class="TextPosition" x="1338" y="5731"><tspan fill="rgb(0,0,0)" stroke="none">Factors by Mattews et. al 2002</tspan></tspan></tspan></text>
</svg>