<?xml version="1.0" encoding="UTF-8"?>
<!DOCTYPE svg PUBLIC "-//W3C//DTD SVG 1.1//EN" "http://www.w3.org/Graphics/SVG/1.1/DTD/svg11.dtd">
<svg width="201mm" height="93mm" viewBox="0 0 20100 9300" version="1.1" baseProfile="tiny" xmlns="http://www.w3.org/2000/svg" stroke-width="28.222" stroke-linejoin="round" xml:space="preserve">
 <path fill="rgb(255,255,255)" stroke="none" d="M 10041,9292 L 16,9292 16,-12 20065,-12 20065,9292 10041,9292 Z"/>
 <path fill="rgb(255,255,255)" stroke="none" d="M 10264,8459 L 1329,8459 1329,373 19199,373 19199,8459 10264,8459 Z"/>
 <path fill="none" stroke="rgb(135,135,135)" stroke-width="26" stroke-linejoin="round" d="M 19199,8458 L 1329,8458"/>
 <path fill="none" stroke="rgb(135,135,135)" stroke-width="26" stroke-linejoin="round" d="M 19199,7447 L 1329,7447"/>
 <path fill="none" stroke="rgb(135,135,135)" stroke-width="26" stroke-linejoin="round" d="M 19199,6436 L 1329,6436"/>
 <path fill="none" stroke="rgb(135,135,135)" stroke-width="26" stroke-linejoin="round" d="M 19199,5425 L 1329,5425"/>
 <path fill="none" stroke="rgb(135,135,135)" stroke-width="26" stroke-linejoin="round" d="M 19199,4415 L 1329,4415"/>
 <path fill="none" stroke="rgb(135,135,135)" stroke-width="26" stroke-linejoin="round" d="M 19199,3404 L 1329,3404"/>
 <path fill="none" stroke="rgb(135,135,135)" stroke-width="26" stroke-linejoin="round" d="M 19199,2393 L 1329,2393"/>
 <path fill="none" stroke="rgb(135,135,135)" stroke-width="26" stroke-linejoin="round" d="M 19199,1382 L 1329,1382"/>
 <path fill="none" stroke="rgb(135,135,135)" stroke-width="26" stroke-linejoin="round" d="M 19199,372 L 1329,372"/>
 <path fill="none" stroke="rgb(135,135,135)" stroke-width="26" stroke-linejoin="round" d="M 1329,8608 L 1329,8308"/>
 <path fill="none" stroke="rgb(135,135,135)" stroke-width="26" stroke-linejoin="round" d="M 3562,8608 L 3562,8308"/>
 <path fill="none" stroke="rgb(135,135,135)" stroke-width="26" stroke-linejoin="round" d="M 5796,8608 L 5796,8308"/>
 <path fill="none" stroke="rgb(135,135,135)" stroke-width="26" stroke-linejoin="round" d="M 8030,8608 L 8030,8308"/>
 <path fill="none" stroke="rgb(135,135,135)" stroke-width="26" stroke-linejoin="round" d="M 10263,8608 L 10263,8308"/>
 <path fill="none" stroke="rgb(135,135,135)" stroke-width="26" stroke-linejoin="round" d="M 12497,8608 L 12497,8308"/>
 <path fill="none" stroke="rgb(135,135,135)" stroke-width="26" stroke-linejoin="round" d="M 14731,8608 L 14731,8308"/>
 <path fill="none" stroke="rgb(135,135,135)" stroke-width="26" stroke-linejoin="round" d="M 16965,8608 L 16965,8308"/>
 <path fill="none" stroke="rgb(135,135,135)" stroke-width="26" stroke-linejoin="round" d="M 19199,8608 L 19199,8308"/>
 <path fill="none" stroke="rgb(135,135,135)" stroke-width="26" stroke-linejoin="round" d="M 1329,8458 L 19199,8458"/>
 <path fill="none" stroke="rgb(135,135,135)" stroke-width="26" stroke-linejoin="round" d="M 1179,8458 L 1329,8458"/>
 <path fill="none" stroke="rgb(135,135,135)" stroke-width="26" stroke-linejoin="round" d="M 1179,7447 L 1329,7447"/>
 <path fill="none" stroke="rgb(135,135,135)" stroke-width="26" stroke-linejoin="round" d="M 1179,6436 L 1329,6436"/>
 <path fill="none" stroke="rgb(135,135,135)" stroke-width="26" stroke-linejoin="round" d="M 1179,5425 L 1329,5425"/>
 <path fill="none" stroke="rgb(135,135,135)" stroke-width="26" stroke-linejoin="round" d="M 1179,4415 L 1329,4415"/>
 <path fill="none" stroke="rgb(135,135,135)" stroke-width="26" stroke-linejoin="round" d="M 1179,3404 L 1329,3404"/>
 <path fill="none" stroke="rgb(135,135,135)" stroke-width="26" stroke-linejoin="round" d="M 1179,2393 L 1329,2393"/>
 <path fill="none" stroke="rgb(135,135,135)" stroke-width="26" stroke-linejoin="round" d="M 1179,1382 L 1329,1382"/>
 <path fill="none" stroke="rgb(135,135,135)" stroke-width="26" stroke-linejoin="round" d="M 1179,372 L 1329,372"/>
 <path fill="none" stroke="rgb(135,135,135)" stroke-width="26" stroke-linejoin="round" d="M 1329,8458 L 1329,372"/>
 <path fill="none" stroke="rgb(74,126,187)" stroke-width="79" stroke-linejoin="round" d="M 1329,7748 L 3562,7516 5796,4989 8030,5143 10263,5592 12497,4838 14731,1360 16965,2376 19199,1098"/>
 <path fill="rgb(74,126,187)" stroke="none" d="M 1241,7660 L 1241,7836 1417,7836 1417,7660 1241,7660 Z"/>
 <path fill="none" stroke="rgb(74,126,187)" stroke-linejoin="round" d="M 1241,7660 L 1241,7836 1417,7836 1417,7660 1241,7660 Z"/>
 <path fill="rgb(74,126,187)" stroke="none" d="M 3474,7428 L 3474,7604 3650,7604 3650,7428 3474,7428 Z"/>
 <path fill="none" stroke="rgb(74,126,187)" stroke-linejoin="round" d="M 3474,7428 L 3474,7604 3650,7604 3650,7428 3474,7428 Z"/>
 <path fill="rgb(74,126,187)" stroke="none" d="M 5708,4901 L 5708,5077 5884,5077 5884,4901 5708,4901 Z"/>
 <path fill="none" stroke="rgb(74,126,187)" stroke-linejoin="round" d="M 5708,4901 L 5708,5077 5884,5077 5884,4901 5708,4901 Z"/>
 <path fill="rgb(74,126,187)" stroke="none" d="M 7942,5055 L 7942,5231 8118,5231 8118,5055 7942,5055 Z"/>
 <path fill="none" stroke="rgb(74,126,187)" stroke-linejoin="round" d="M 7942,5055 L 7942,5231 8118,5231 8118,5055 7942,5055 Z"/>
 <path fill="rgb(74,126,187)" stroke="none" d="M 10175,5504 L 10175,5680 10351,5680 10351,5504 10175,5504 Z"/>
 <path fill="none" stroke="rgb(74,126,187)" stroke-linejoin="round" d="M 10175,5504 L 10175,5680 10351,5680 10351,5504 10175,5504 Z"/>
 <path fill="rgb(74,126,187)" stroke="none" d="M 12409,4750 L 12409,4926 12585,4926 12585,4750 12409,4750 Z"/>
 <path fill="none" stroke="rgb(74,126,187)" stroke-linejoin="round" d="M 12409,4750 L 12409,4926 12585,4926 12585,4750 12409,4750 Z"/>
 <path fill="rgb(74,126,187)" stroke="none" d="M 14643,1272 L 14643,1448 14819,1448 14819,1272 14643,1272 Z"/>
 <path fill="none" stroke="rgb(74,126,187)" stroke-linejoin="round" d="M 14643,1272 L 14643,1448 14819,1448 14819,1272 14643,1272 Z"/>
 <path fill="rgb(74,126,187)" stroke="none" d="M 16877,2288 L 16877,2464 17053,2464 17053,2288 16877,2288 Z"/>
 <path fill="none" stroke="rgb(74,126,187)" stroke-linejoin="round" d="M 16877,2288 L 16877,2464 17053,2464 17053,2288 16877,2288 Z"/>
 <path fill="rgb(74,126,187)" stroke="none" d="M 19111,1010 L 19111,1186 19287,1186 19287,1010 19111,1010 Z"/>
 <path fill="none" stroke="rgb(74,126,187)" stroke-linejoin="round" d="M 19111,1010 L 19111,1186 19287,1186 19287,1010 19111,1010 Z"/>
 <path fill="none" stroke="rgb(0,0,0)" stroke-width="26" stroke-linejoin="round" d="M 1329,7823 L 19199,1212"/>
 <text class="TextShape"><tspan class="TextParagraph" font-family="Liberation Sans, sans-serif" font-size="353px" font-weight="400"><tspan class="TextPosition" x="733" y="9026"/><tspan class="TextPosition" x="733" y="9026"><tspan fill="rgb(0,0,0)" stroke="none">Smooth</tspan></tspan></tspan></text>
 <text class="TextShape"><tspan class="TextParagraph" font-family="Liberation Sans, sans-serif" font-size="353px" font-weight="400"><tspan class="TextPosition" x="2675" y="9026"/><tspan class="TextPosition" x="2675" y="9026"><tspan fill="rgb(0,0,0)" stroke="none">new termac</tspan></tspan></tspan></text>
 <text class="TextShape"><tspan class="TextParagraph" font-family="Liberation Sans, sans-serif" font-size="353px" font-weight="400"><tspan class="TextPosition" x="4989" y="9026"/><tspan class="TextPosition" x="4989" y="9026"><tspan fill="rgb(0,0,0)" stroke="none">old termac</tspan></tspan></tspan></text>
 <text class="TextShape"><tspan class="TextParagraph" font-family="Liberation Sans, sans-serif" font-size="353px" font-weight="400"><tspan class="TextPosition" x="7434" y="9026"/><tspan class="TextPosition" x="7434" y="9026"><tspan fill="rgb(0,0,0)" stroke="none">big tiles</tspan></tspan></tspan></text>
 <text class="TextShape"><tspan class="TextParagraph" font-family="Liberation Sans, sans-serif" font-size="353px" font-weight="400"><tspan class="TextPosition" x="9946" y="9026"/><tspan class="TextPosition" x="9946" y="9026"><tspan fill="rgb(0,0,0)" stroke="none">tiles</tspan></tspan></tspan></text>
 <text class="TextShape"><tspan class="TextParagraph" font-family="Liberation Sans, sans-serif" font-size="353px" font-weight="400"><tspan class="TextPosition" x="12101" y="9026"/><tspan class="TextPosition" x="12101" y="9026"><tspan fill="rgb(0,0,0)" stroke="none">Brick</tspan></tspan></tspan></text>
 <text class="TextShape"><tspan class="TextParagraph" font-family="Liberation Sans, sans-serif" font-size="353px" font-weight="400"><tspan class="TextPosition" x="14189" y="9026"/><tspan class="TextPosition" x="14189" y="9026"><tspan fill="rgb(0,0,0)" stroke="none">Stones</tspan></tspan></tspan></text>
 <text class="TextShape"><tspan class="TextParagraph" font-family="Liberation Sans, sans-serif" font-size="353px" font-weight="400"><tspan class="TextPosition" x="16463" y="9026"/><tspan class="TextPosition" x="16463" y="9026"><tspan fill="rgb(0,0,0)" stroke="none">Gravel</tspan></tspan></tspan></text>
 <text class="TextShape"><tspan class="TextParagraph" font-family="Liberation Sans, sans-serif" font-size="353px" font-weight="400"><tspan class="TextPosition" x="18737" y="9026"/><tspan class="TextPosition" x="18737" y="9026"><tspan fill="rgb(0,0,0)" stroke="none">Grass</tspan></tspan></tspan></text>
 <text class="TextShape"><tspan class="TextParagraph" font-family="Liberation Sans, sans-serif" font-size="353px" font-weight="400"><tspan class="TextPosition" x="894" y="8579"/><tspan class="TextPosition" x="894" y="8579"><tspan fill="rgb(0,0,0)" stroke="none">0</tspan></tspan></tspan></text>
 <text class="TextShape"><tspan class="TextParagraph" font-family="Liberation Sans, sans-serif" font-size="353px" font-weight="400"><tspan class="TextPosition" x="418" y="7568"/><tspan class="TextPosition" x="418" y="7568"><tspan fill="rgb(0,0,0)" stroke="none">0.02</tspan></tspan></tspan></text>
 <text class="TextShape"><tspan class="TextParagraph" font-family="Liberation Sans, sans-serif" font-size="353px" font-weight="400"><tspan class="TextPosition" x="418" y="6557"/><tspan class="TextPosition" x="418" y="6557"><tspan fill="rgb(0,0,0)" stroke="none">0.04</tspan></tspan></tspan></text>
 <text class="TextShape"><tspan class="TextParagraph" font-family="Liberation Sans, sans-serif" font-size="353px" font-weight="400"><tspan class="TextPosition" x="418" y="5546"/><tspan class="TextPosition" x="418" y="5546"><tspan fill="rgb(0,0,0)" stroke="none">0.06</tspan></tspan></tspan></text>
 <text class="TextShape"><tspan class="TextParagraph" font-family="Liberation Sans, sans-serif" font-size="353px" font-weight="400"><tspan class="TextPosition" x="418" y="4535"/><tspan class="TextPosition" x="418" y="4535"><tspan fill="rgb(0,0,0)" stroke="none">0.08</tspan></tspan></tspan></text>
 <text class="TextShape"><tspan class="TextParagraph" font-family="Liberation Sans, sans-serif" font-size="353px" font-weight="400"><tspan class="TextPosition" x="603" y="3524"/><tspan class="TextPosition" x="603" y="3524"><tspan fill="rgb(0,0,0)" stroke="none">0.1</tspan></tspan></tspan></text>
 <text class="TextShape"><tspan class="TextParagraph" font-family="Liberation Sans, sans-serif" font-size="353px" font-weight="400"><tspan class="TextPosition" x="418" y="2513"/><tspan class="TextPosition" x="418" y="2513"><tspan fill="rgb(0,0,0)" stroke="none">0.12</tspan></tspan></tspan></text>
 <text class="TextShape"><tspan class="TextParagraph" font-family="Liberation Sans, sans-serif" font-size="353px" font-weight="400"><tspan class="TextPosition" x="418" y="1502"/><tspan class="TextPosition" x="418" y="1502"><tspan fill="rgb(0,0,0)" stroke="none">0.14</tspan></tspan></tspan></text>
 <text class="TextShape"><tspan class="TextParagraph" font-family="Liberation Sans, sans-serif" font-size="353px" font-weight="400"><tspan class="TextPosition" x="418" y="492"/><tspan class="TextPosition" x="418" y="492"><tspan fill="rgb(0,0,0)" stroke="none">0.16</tspan></tspan></tspan></text>
 <text class="TextShape"><tspan class="TextParagraph" font-family="Liberation Sans, sans-serif" font-size="494px" font-weight="400"><tspan class="TextPosition" x="16403" y="4064"/><tspan class="TextPosition" x="16403" y="4064"><tspan fill="rgb(0,0,0)" stroke="none">R² = 0.86</tspan></tspan></tspan></text>
</svg>